<svg width="13" height="13" viewBox="0 0 13 13" fill="none" xmlns="http://www.w3.org/2000/svg">
<path d="M12.0193 4.58735C12.0199 4.54322 12.0094 4.49909 11.9884 4.46022L10.7024 1.94292C10.4073 1.36403 9.81327 1 9.16477 1H3.85932C3.2103 1 2.61631 1.36403 2.32115 1.94292L1.03095 4.46439C1.0105 4.50326 0.999493 4.54739 1.00002 4.59151C1.00159 5.30331 1.37591 5.96158 1.98563 6.32602V10.7286C1.9872 11.6841 2.75838 12.4594 3.7125 12.4641H9.30421C10.2584 12.4594 11.0295 11.6841 11.0311 10.7286V6.32602C11.6429 5.96146 12.0188 5.30128 12.0193 4.58735ZM10.0035 6.05397C9.23652 6.05344 8.60008 5.46037 8.54398 4.69399H11.4547C11.3991 5.45726 10.7673 6.0498 10.0035 6.05397ZM2.81497 2.19928C3.01524 1.80582 3.41891 1.55893 3.85928 1.56051H9.16472C9.60509 1.55893 10.0088 1.80582 10.209 2.19928L11.2004 4.13402H1.83351L2.81497 2.19928ZM7.96795 4.69399C7.91028 5.45883 7.27383 6.0498 6.50842 6.0498C5.74301 6.0498 5.1066 5.45883 5.04889 4.69399H7.96795ZM1.56212 4.69399H4.48011C4.42663 5.46198 3.78967 6.05827 3.02111 6.05827C2.25256 6.05827 1.61554 5.46205 1.56212 4.69399ZM10.4719 10.7287C10.4719 11.3754 9.95026 11.9007 9.30438 11.9038H3.71267C3.06469 11.9038 2.53938 11.378 2.53938 10.7287V6.55571C2.69509 6.59458 2.85447 6.61454 3.01489 6.61454C3.73469 6.61559 4.401 6.2337 4.76538 5.61173C5.12816 6.23107 5.79135 6.61192 6.5085 6.61192C7.22565 6.61192 7.88884 6.23107 8.25161 5.61173C8.61597 6.23422 9.28335 6.61613 10.0037 6.61454C10.1636 6.61454 10.3235 6.59458 10.4787 6.55571L10.4719 10.7287Z" fill="#F8A611" stroke="#F8A611" stroke-width="0.4"/>
</svg>
