<svg width="9" height="9" viewBox="0 0 9 9" fill="none" xmlns="http://www.w3.org/2000/svg">
<path d="M8.37441 0.19649C8.12108 -0.0568359 7.71186 -0.0568359 7.45853 0.19649L4.2822 3.36633L1.10587 0.189995C0.852542 -0.0633318 0.443322 -0.0633318 0.189995 0.189995C-0.0633318 0.443322 -0.0633318 0.852542 0.189995 1.10587L3.36633 4.2822L0.189995 7.45853C-0.0633318 7.71185 -0.0633318 8.12108 0.189995 8.3744C0.443322 8.62773 0.852542 8.62773 1.10587 8.3744L4.2822 5.19807L7.45853 8.3744C7.71186 8.62773 8.12108 8.62773 8.37441 8.3744C8.62773 8.12108 8.62773 7.71185 8.37441 7.45853L5.19808 4.2822L8.37441 1.10587C8.62124 0.859038 8.62124 0.443322 8.37441 0.19649Z" fill="#9B9CA8"/>
</svg>
