<svg width="504" height="504" viewBox="0 0 504 504" fill="none" xmlns="http://www.w3.org/2000/svg">
<rect width="504" height="504" fill="#F5F5F6"/>
<rect x="203.493" y="203.493" width="99.3803" height="99.3803" rx="11.831" fill="white"/>
<path d="M227.155 234.254L214.141 244.901V272.113C214.141 276.845 215.718 277.239 216.507 276.845H281.577C275.662 269.352 263.121 254.13 260.281 253.183C257.442 252.237 252.789 256.732 250.817 259.099L227.155 234.254Z" fill="#CEEFF1"/>
<circle cx="276.845" cy="229.521" r="7.09859" fill="#FDE4B8"/>
<path fill-rule="evenodd" clip-rule="evenodd" d="M276.453 220.648C271.43 220.648 267.362 224.725 267.362 229.758C267.362 234.791 271.43 238.868 276.453 238.868C281.475 238.868 285.544 234.791 285.544 229.758C285.544 224.725 281.475 220.648 276.453 220.648ZM272.557 229.758C272.557 227.602 274.302 225.854 276.453 225.854C278.604 225.854 280.349 227.602 280.349 229.758C280.349 231.913 278.604 233.662 276.453 233.662C274.302 233.662 272.557 231.913 272.557 229.758Z" fill="#AFAFBA"/>
<path fill-rule="evenodd" clip-rule="evenodd" d="M216.711 211.538C213.839 211.538 211.516 213.866 211.516 216.744V274.006C211.516 276.883 213.839 279.211 216.711 279.211H289.439C292.31 279.211 294.634 276.883 294.634 274.006V216.744C294.634 213.866 292.31 211.538 289.439 211.538H216.711ZM216.711 274.006V248.725L225.553 238.567C226.588 237.378 228.429 237.378 229.464 238.567L248.991 261.006C249.483 261.571 250.198 261.896 250.949 261.896C251.7 261.896 252.415 261.571 252.907 261.006L256.803 256.523C257.838 255.338 259.685 255.338 260.72 256.523L275.934 274.006H216.711ZM264.636 253.102L282.828 274.006H289.439V216.744H216.71V240.804L221.636 235.146C224.741 231.577 230.276 231.577 233.381 235.146L250.948 255.333L252.891 253.102C255.996 249.538 261.531 249.539 264.636 253.102Z" fill="#AFAFBA"/>
<path fill-rule="evenodd" clip-rule="evenodd" d="M214.114 201.127C206.941 201.127 201.127 206.953 201.127 214.141V292.225C201.127 299.414 206.941 305.239 214.114 305.239H292.037C299.211 305.239 305.025 299.414 305.025 292.225V214.141C305.025 206.953 299.211 201.127 292.037 201.127H214.114ZM206.322 214.141C206.322 209.83 209.812 206.332 214.114 206.332H292.037C296.339 206.332 299.83 209.83 299.83 214.141V292.225C299.83 296.536 296.339 300.034 292.037 300.034H214.114C209.812 300.034 206.322 296.536 206.322 292.225V214.141Z" fill="#AFAFBA"/>
</svg>