<svg width="15" height="11" viewBox="0 0 15 11" fill="none" xmlns="http://www.w3.org/2000/svg">
<path d="M10.1315 9.75235C9.9656 9.75235 9.7884 9.72485 9.60491 9.6711C9.4064 9.61297 9.29244 9.4042 9.35068 9.20544C9.40954 9.00667 9.61807 8.89354 9.8172 8.95167C9.9318 8.98543 10.0376 9.0023 10.1315 9.0023C10.8442 9.0023 12.749 7.18347 12.749 5.26206C12.749 4.13762 11.2894 3.22385 10.419 2.77934C10.2343 2.68496 10.1616 2.4587 10.2562 2.27432C10.3507 2.08994 10.5768 2.01742 10.7615 2.11181C12.0108 2.74998 13.5005 3.81448 13.5005 5.26209C13.5005 7.53344 11.369 9.75235 10.1315 9.75235Z" fill="#363852"/>
<path d="M12.6984 11C11.8625 11 10.873 10.4299 10.2031 9.52237C10.0804 9.35611 10.116 9.1211 10.2832 8.99797C10.4504 8.87609 10.6853 8.91109 10.8086 9.07798C11.3879 9.86302 12.3353 10.3768 12.9202 10.2237C13.2439 10.1387 13.4387 9.83867 13.5 9.33238C13.6541 8.06604 13.0661 6.88038 12.7023 6.28594C12.5939 6.10905 12.6497 5.87841 12.8262 5.77027C13.0035 5.66214 13.2352 5.71777 13.3429 5.89466C13.758 6.57158 14.4274 7.93111 14.2459 9.42241C14.1125 10.5268 13.4775 10.8525 13.1112 10.9488C12.9797 10.9838 12.8412 11 12.6984 11Z" fill="#363852"/>
<path d="M4.14514 9.75232C2.90776 9.75232 0.776123 7.53346 0.776123 5.26211C0.776123 4.43143 1.26519 3.63832 2.22953 2.90564C2.39422 2.78 2.6303 2.81188 2.75617 2.97689C2.88141 3.14189 2.84948 3.37692 2.68479 3.50256C1.91706 4.08571 1.52756 4.67764 1.52756 5.26203C1.52756 7.18343 3.43249 9.00227 4.14506 9.00227C4.48383 9.00227 4.96351 8.77914 5.4964 8.3741C5.66108 8.24909 5.89717 8.28035 6.02304 8.44536C6.14891 8.60974 6.11697 8.84538 5.95165 8.97102C5.26972 9.48919 4.66245 9.75232 4.14514 9.75232Z" fill="#363852"/>
<path d="M1.57836 11C1.43558 11 1.29719 10.9838 1.16569 10.9488C0.799361 10.8525 0.1644 10.5269 0.030399 9.42241C-0.150572 7.93106 0.518214 6.57166 0.933377 5.89466C1.04171 5.71777 1.2734 5.66215 1.45 5.77028C1.62722 5.87841 1.68294 6.10905 1.57461 6.28594C1.2108 6.88035 0.622789 8.06606 0.776828 9.33238C0.838195 9.83867 1.03295 10.1387 1.35669 10.2237C1.94031 10.3768 2.889 9.86304 3.46826 9.07798C3.59162 8.91109 3.82707 8.87547 3.99363 8.99797C4.16083 9.1211 4.19652 9.35612 4.07379 9.52237C3.40375 10.4299 2.4142 11 1.57836 11Z" fill="#363852"/>
<path d="M2.89837 7.18035C2.77501 7.18035 2.65416 7.11972 2.58213 7.00847C2.02983 6.15405 2.02356 5.2978 2.02356 5.26212C2.02356 5.0546 2.19139 4.88708 2.39929 4.88708C2.60594 4.88708 2.77375 5.05398 2.77502 5.26023C2.77502 5.27461 2.78817 5.94402 3.21336 6.60156C3.32607 6.77594 3.27598 7.00785 3.1019 7.12035C3.03865 7.16098 2.96787 7.18035 2.89837 7.18035Z" fill="#363852"/>
<path d="M11.3784 7.18034C11.3089 7.18034 11.2381 7.16096 11.1749 7.12034C11.0008 7.00783 10.9507 6.77595 11.0634 6.60155C11.4911 5.94026 11.5018 5.2671 11.5018 5.26022C11.5036 5.05457 11.6715 4.8877 11.8775 4.8877H11.8794C12.086 4.88895 12.2532 5.05521 12.2532 5.26209C12.2532 5.29772 12.2469 6.15402 11.6946 7.00844C11.6226 7.1197 11.5018 7.18034 11.3784 7.18034Z" fill="#363852"/>
<path d="M7.13844 9.4949C5.31623 9.4949 4.27038 8.14357 3.52896 4.82964C3.11817 2.99448 3.2121 1.83137 3.83266 1.0582C4.42004 0.326277 5.43942 0 7.13836 0C8.83729 0 9.85669 0.326277 10.4441 1.0582C11.0646 1.83137 11.1585 2.99464 10.7478 4.82964C10.0057 8.14361 8.96081 9.4949 7.13844 9.4949ZM7.13844 0.750017C5.70882 0.750017 4.8446 0.996913 4.41947 1.52695C3.96109 2.09823 3.91099 3.09518 4.26229 4.66587C5.02 8.05105 5.95994 8.74485 7.13836 8.74485C8.31678 8.74485 9.25682 8.05106 10.0144 4.66587C10.3657 3.09514 10.3156 2.09818 9.85726 1.52695C9.43208 0.996913 8.56806 0.750017 7.13844 0.750017Z" fill="#363852"/>
<path d="M9.00086 2.65507C8.89503 2.65507 8.78983 2.61007 8.71657 2.52506C8.68651 2.50319 8.47046 2.3663 7.75535 2.3138C7.54807 2.2988 7.39278 2.11878 7.4078 1.91253C7.42283 1.70563 7.59879 1.55126 7.80982 1.56562C8.78606 1.6375 9.15804 1.86876 9.29831 2.05065C9.42543 2.21503 9.39474 2.45067 9.23005 2.57694C9.16179 2.62944 9.08101 2.65507 9.00086 2.65507Z" fill="#363852"/>
<path d="M6.05009 2.36438C5.86849 2.36438 5.70881 2.23312 5.67938 2.0481C5.64682 1.84372 5.78708 1.65182 5.99185 1.61932C6.10519 1.6012 6.23356 1.58494 6.37885 1.57244C6.58423 1.55557 6.7671 1.70808 6.78526 1.91434C6.80279 2.12061 6.65 2.30249 6.44273 2.31999C6.31812 2.33062 6.20727 2.34437 6.1096 2.36C6.08956 2.36312 6.0695 2.36438 6.05009 2.36438Z" fill="#363852"/>
</svg>
