<svg width="10" height="10" viewBox="0 0 15 15" fill="none" xmlns="http://www.w3.org/2000/svg">
<path d="M12.8747 3.60938C12.5819 3.60938 12.3438 3.84662 12.3438 4.14027V13.1605H9.52585C9.23303 13.1605 8.99496 13.3986 8.99496 13.6914C8.99496 13.9851 9.23303 14.2223 9.52585 14.2223H12.8747C13.0157 14.2223 13.1509 14.1667 13.2505 14.0672C13.35 13.9676 13.4056 13.8324 13.4056 13.6914V4.13794C13.4048 3.84595 13.1675 3.60938 12.8747 3.60938Z" fill="#363852"/>
<path d="M5.47451 13.1604H2.65655V4.13782C2.65655 3.84501 2.41847 3.60693 2.12566 3.60693C1.83201 3.60693 1.59476 3.84501 1.59476 4.13782V13.6939C1.59476 13.8349 1.65034 13.9701 1.74988 14.0696C1.84943 14.1692 1.98464 14.2247 2.12565 14.2247H5.47451C5.76733 14.2247 6.0054 13.9867 6.0054 13.6939C6.0054 13.401 5.76733 13.163 5.47451 13.163L5.47451 13.1604Z" fill="#363852"/>
<path d="M14.746 4.5817L7.78878 0.083988C7.61292 -0.027996 7.38729 -0.027996 7.21142 0.083988L0.254203 4.5817C0.132264 4.65635 0.045164 4.77663 0.0136461 4.91681C-0.0187043 5.05617 0.00700979 5.20218 0.0849849 5.32246C0.16213 5.44274 0.284899 5.52652 0.425923 5.55556C0.566112 5.58376 0.711287 5.5539 0.829888 5.47344L7.5 1.16494L14.1701 5.47344C14.2887 5.5539 14.4339 5.58376 14.5741 5.55556C14.7151 5.52653 14.8379 5.44275 14.915 5.32246C14.993 5.20218 15.0187 5.05618 14.9864 4.91681C14.9548 4.77663 14.8679 4.65634 14.746 4.5817Z" fill="#363852"/>
<path d="M7.56984 6.58008H7.42965H7.43048C6.06012 6.58588 4.9527 7.69743 4.95185 9.06698V13.694C4.95185 13.9868 5.18993 14.2249 5.48274 14.2249C5.77556 14.2249 6.01363 13.9868 6.01363 13.694V9.06698C6.01446 8.28061 6.65236 7.64271 7.43874 7.64188H7.57893C8.35868 7.65266 8.98579 8.28725 8.98661 9.06698V13.694C8.98661 13.9868 9.22469 14.2249 9.51751 14.2249C9.81032 14.2249 10.0484 13.9868 10.0484 13.694V9.06698C10.0476 7.69745 8.94021 6.58581 7.56984 6.58008Z" fill="#363852"/>
</svg>
