<svg width="42" height="29" viewBox="0 0 42 29" fill="none" xmlns="http://www.w3.org/2000/svg">
<path d="M41.336 13.5216C41.336 6.07742 32.0814 0 20.665 0C9.24864 0 0 6.07146 0 13.5216C0 13.7122 0 14.2452 0 14.3136C0 22.2134 8.08735 28.6065 20.668 28.6065C33.329 28.6065 41.3419 22.2104 41.3419 14.3136L41.336 13.5216Z" fill="#000F9F"/>
<path d="M40.5438 13.5157C40.5438 20.5371 31.6465 26.2274 20.6709 26.2274C9.69517 26.2274 0.794922 20.5371 0.794922 13.5157C0.794922 6.49437 9.69219 0.798096 20.6709 0.798096C31.6495 0.798096 40.5438 6.4914 40.5438 13.5157Z" fill="#00AEEF"/>
<path d="M14.0695 9.50166C14.0695 9.5225 13.8611 9.72796 13.9891 9.89174C14.3047 10.2937 15.2725 10.523 16.2521 10.3027C16.8477 10.1716 17.5831 9.57908 18.3067 9.00439C19.0928 8.37908 19.87 7.75377 20.6531 7.51556C21.204 7.31595 21.8047 7.30027 22.3653 7.47089C22.9334 7.68365 23.4611 7.9918 23.9256 8.38206C25.2834 9.4034 30.7534 14.1766 31.6973 15.0014C34.5124 13.7832 37.4393 12.8418 40.4367 12.1905C40.0377 9.73987 38.5459 7.49769 36.2859 5.66345C33.1355 6.98553 29.2854 7.67635 25.5216 5.83615C25.5008 5.83615 23.464 4.86543 21.4541 4.91307C18.4764 4.98156 17.1752 6.27387 15.7965 7.6436L14.0695 9.50166Z" fill="white"/>
<path d="M31.4739 15.5106C31.4113 15.454 25.0451 9.88579 23.6039 8.80192C22.7672 8.17661 22.3056 8.01581 21.8173 7.95328C21.5319 7.93079 21.2448 7.95799 20.9687 8.03368C20.2957 8.21829 19.4203 8.80489 18.6401 9.42127C17.86 10.0376 17.0739 10.6689 16.3771 10.8267C15.5243 11.0021 14.6369 10.8691 13.8729 10.4515C13.6947 10.3417 13.5513 10.1838 13.459 9.99596C13.407 9.85176 13.3994 9.6953 13.4371 9.54673C13.4747 9.39815 13.556 9.26424 13.6704 9.16221L15.4272 7.26246C15.6327 7.05998 15.8381 6.85452 16.0466 6.66693C15.5056 6.74821 14.9712 6.86863 14.4476 7.02723C13.8429 7.22757 13.2138 7.34477 12.5776 7.37561C11.9374 7.31086 11.3013 7.21146 10.6719 7.07785C8.93077 6.62776 7.23594 6.01463 5.60985 5.24658C3.0967 7.09274 1.42623 9.41829 0.943848 11.991C1.30415 12.0863 1.88181 12.259 2.13491 12.3126C7.79248 13.5692 9.54931 14.8644 9.87685 15.1354C10.0646 14.9239 10.2979 14.7577 10.5592 14.6494C10.8205 14.5411 11.1029 14.4934 11.3853 14.5101C11.6676 14.5267 11.9425 14.6071 12.1893 14.7454C12.436 14.8836 12.6482 15.076 12.8099 15.3081C13.1902 14.9989 13.6656 14.8306 14.1558 14.8317C14.4307 14.8353 14.7032 14.8836 14.9627 14.9746C15.2094 15.0557 15.4363 15.1877 15.6287 15.3621C15.821 15.5365 15.9746 15.7494 16.0793 15.987C16.3266 15.8765 16.5946 15.8197 16.8654 15.8203C17.1902 15.8235 17.5107 15.8945 17.8064 16.0287C18.8486 16.4754 18.9974 17.4997 18.917 18.2709C18.9914 18.2664 19.066 18.2664 19.1404 18.2709C19.7342 18.2709 20.3038 18.5068 20.7237 18.9267C21.1437 19.3467 21.3796 19.9162 21.3796 20.5101C21.3806 20.8803 21.2884 21.2449 21.1116 21.5702C21.4481 21.7577 22.3027 22.1865 23.059 22.0912C23.6545 22.0138 23.8868 21.8084 23.9701 21.6922C24.0535 21.5761 24.0833 21.5195 24.0297 21.454L22.4337 19.6823C22.4337 19.6823 22.1716 19.4352 22.258 19.3399C22.3443 19.2446 22.5111 19.3816 22.6272 19.4769C23.4371 20.1439 24.4168 21.1652 24.4168 21.1652C24.4168 21.1652 24.5002 21.3081 24.8664 21.3736C25.0856 21.4113 25.3101 21.4043 25.5266 21.3532C25.743 21.302 25.9469 21.2077 26.126 21.0759C26.2278 20.9859 26.3205 20.8861 26.4029 20.7781C26.4029 20.7781 26.4029 20.7781 26.385 20.7781C26.4967 20.6239 26.553 20.4365 26.5449 20.2463C26.5368 20.056 26.4647 19.8741 26.3404 19.73L24.4764 17.6456C24.4764 17.6456 24.2113 17.3984 24.3007 17.3002C24.39 17.2019 24.5538 17.3448 24.6699 17.4401C25.2654 17.9344 26.0932 18.7682 26.8912 19.5513C27.0461 19.6644 27.7488 20.0992 28.6778 19.4888C28.8847 19.3738 29.0559 19.2041 29.1726 18.9981C29.2892 18.7922 29.3467 18.5581 29.3389 18.3215C29.2985 18.0258 29.1601 17.7521 28.9458 17.5443L26.4029 14.9895C26.4029 14.9895 26.1349 14.7602 26.2272 14.6441C26.3195 14.528 26.4803 14.6858 26.5935 14.7811C27.4064 15.46 29.5979 17.461 29.5979 17.461C29.8556 17.6286 30.1577 17.7151 30.465 17.7093C30.7724 17.7034 31.0709 17.6055 31.322 17.4282C31.4837 17.3339 31.6199 17.2017 31.719 17.043C31.8181 16.8842 31.8771 16.7037 31.8907 16.5171C31.8952 16.3295 31.8605 16.1431 31.7887 15.9698C31.7169 15.7964 31.6097 15.64 31.4739 15.5106Z" fill="white"/>
<path d="M19.1403 18.7535C18.7473 18.7535 18.3155 18.9827 18.247 18.95C18.1785 18.9172 18.2709 18.7683 18.3066 18.679C18.3423 18.5897 18.8664 17.0264 17.5979 16.4815C16.6302 16.0676 16.0376 16.5351 15.8351 16.7465C15.7815 16.8001 15.7577 16.7971 15.7517 16.7257C15.7434 16.4339 15.6443 16.1521 15.4681 15.9193C15.292 15.6866 15.0476 15.5147 14.7691 15.4274C14.3746 15.3065 13.9517 15.3163 13.5632 15.4553C13.1748 15.5942 12.8416 15.855 12.6133 16.1986C12.5696 15.8916 12.424 15.6082 12.1998 15.3941C11.9755 15.1799 11.6858 15.0473 11.3771 15.0178C11.0685 14.9882 10.7588 15.0633 10.498 15.2311C10.2372 15.3988 10.0404 15.6494 9.93931 15.9425C9.83819 16.2356 9.8386 16.5543 9.94049 16.8471C10.0424 17.14 10.2398 17.3901 10.5011 17.5571C10.7623 17.7242 11.0721 17.7985 11.3807 17.7681C11.6893 17.7377 11.9787 17.6045 12.2024 17.3897C12.2024 17.3897 12.2024 17.4075 12.2024 17.4343C12.1111 17.8608 12.176 18.3058 12.3854 18.6884C12.5947 19.071 12.9345 19.3656 13.3428 19.5187C13.5641 19.6049 13.8041 19.6313 14.0388 19.5952C14.2736 19.5592 14.4946 19.4619 14.6798 19.3133C14.79 19.2358 14.8078 19.2686 14.7929 19.3728C14.7453 19.6914 14.7929 20.3793 15.7666 20.7693C16.0054 20.8861 16.2753 20.9228 16.5366 20.874C16.7978 20.8252 17.0363 20.6935 17.2168 20.4984C17.3388 20.3882 17.3746 20.4061 17.3805 20.5788C17.3957 20.9203 17.5109 21.2498 17.7117 21.5265C17.9126 21.8031 18.1903 22.0147 18.5103 22.1349C18.8303 22.2551 19.1786 22.2786 19.5119 22.2025C19.8452 22.1265 20.1489 21.9542 20.3851 21.707C20.6213 21.4599 20.7797 21.1488 20.8407 20.8125C20.9016 20.4761 20.8624 20.1292 20.7279 19.8149C20.5934 19.5006 20.3696 19.2327 20.0842 19.0445C19.7987 18.8564 19.4643 18.7562 19.1225 18.7564L19.1403 18.7535Z" fill="white"/>
<path d="M31.721 14.8465C29.7617 13.1344 25.2297 9.18897 23.9999 8.27185C23.5248 7.87187 22.9837 7.55751 22.4009 7.34282C22.1466 7.26335 21.8813 7.22416 21.6148 7.22669C21.2768 7.23145 20.9414 7.28768 20.6203 7.39344C19.8252 7.64356 19.0362 8.28674 18.2709 8.88227L18.2322 8.91503C17.5205 9.48078 16.785 10.0644 16.2282 10.1895C15.9841 10.2454 15.7343 10.2734 15.4838 10.2728C14.8615 10.2728 14.2927 10.0912 14.0903 9.82322C14.0575 9.77855 14.0903 9.70709 14.1587 9.60585V9.59096L15.8828 7.73289C17.2347 6.38103 18.5091 5.10659 21.4481 5.05299H21.594C22.9309 5.10697 24.2451 5.41731 25.4649 5.96714C27.099 6.78526 28.8991 7.2172 30.7265 7.22967C32.7311 7.19602 34.7039 6.72339 36.5061 5.84505C36.2798 5.65746 36.0476 5.47284 35.8064 5.29418C34.216 6.02171 32.4929 6.41398 30.7444 6.44654C29.0334 6.42943 27.349 6.02206 25.8193 5.25547C24.4948 4.64596 23.0629 4.30393 21.6059 4.24902H21.4391C18.9707 4.3056 17.5682 5.18103 16.6481 5.94927C15.8386 5.99303 15.0381 6.14013 14.2659 6.38699C13.7219 6.5682 13.1561 6.67634 12.5836 6.70858C12.3662 6.70858 11.988 6.69071 11.9434 6.68773C11.3478 6.66987 8.30167 5.92545 5.88381 5.00833C5.63666 5.18401 5.40143 5.36565 5.16917 5.54729C7.69423 6.58351 10.7672 7.38451 11.7349 7.44704C12.0059 7.4649 12.2947 7.49468 12.5806 7.49468C13.2277 7.46374 13.8678 7.34555 14.4833 7.14332C14.8496 7.0391 15.2515 6.92892 15.6744 6.84555L15.3349 7.185L13.5751 9.07284C13.4432 9.19247 13.35 9.3488 13.3075 9.52177C13.2651 9.69474 13.2753 9.87645 13.3369 10.0436C13.4377 10.2546 13.5968 10.4323 13.7955 10.5557C14.3631 10.8748 15.0054 11.0372 15.6565 11.0262C15.9057 11.0272 16.1543 11.0013 16.398 10.9488C17.1334 10.785 17.9047 10.1686 18.7205 9.5195C19.3697 9.00436 20.2957 8.34927 21.0014 8.15572C21.2094 8.09997 21.4234 8.06997 21.6386 8.06639C21.6932 8.06311 21.7479 8.06311 21.8024 8.06639C22.2699 8.12595 22.7225 8.28376 23.5295 8.88823C24.9677 9.96912 31.3339 15.5403 31.3965 15.5939C31.5235 15.7132 31.6233 15.8585 31.689 16.0198C31.7548 16.1812 31.785 16.3548 31.7776 16.5289C31.7672 16.6977 31.7149 16.8611 31.6255 17.0046C31.536 17.1481 31.4123 17.267 31.2654 17.3508C31.0173 17.5163 30.7269 17.6072 30.4287 17.6128C30.1671 17.6136 29.9108 17.5392 29.6903 17.3984C29.6664 17.3805 27.4868 15.3795 26.6828 14.7185C26.5825 14.6134 26.4509 14.5434 26.3076 14.519C26.2757 14.5178 26.2439 14.5242 26.215 14.5377C26.186 14.5511 26.1606 14.5713 26.1409 14.5964C26.0128 14.7513 26.1409 14.9686 26.3225 15.1086L28.8833 17.6485C29.0742 17.8332 29.1978 18.0763 29.2347 18.3393C29.2425 18.5533 29.191 18.7653 29.0859 18.9518C28.9808 19.1384 28.8262 19.2922 28.6391 19.3964C28.3766 19.5802 28.0662 19.6837 27.7458 19.6942C27.4873 19.6937 27.2346 19.6171 27.0193 19.4738L26.6262 19.1374C25.9592 18.4793 25.2684 17.8004 24.7652 17.3805C24.6628 17.2754 24.5291 17.2064 24.3841 17.184C24.3542 17.1833 24.3245 17.1887 24.2968 17.2C24.2692 17.2113 24.2441 17.2281 24.2233 17.2495C24.1667 17.315 24.125 17.4312 24.2709 17.6217C24.3104 17.6722 24.3531 17.7199 24.3989 17.7647L26.257 19.849C26.365 19.9707 26.4281 20.1258 26.4357 20.2883C26.4433 20.4509 26.3949 20.6111 26.2987 20.7423L26.2332 20.8257C26.1802 20.8858 26.1224 20.9416 26.0605 20.9924C25.8028 21.1857 25.4893 21.2902 25.1672 21.2902C25.0833 21.2913 24.9996 21.2843 24.9171 21.2694C24.7813 21.2594 24.6526 21.205 24.5508 21.1145L24.527 21.0907C24.4257 20.9865 23.4878 20.0307 22.7136 19.3815C22.6155 19.2677 22.4806 19.1919 22.3324 19.1671C22.301 19.1671 22.2698 19.1737 22.2411 19.1865C22.2124 19.1994 22.1867 19.2181 22.1657 19.2416C22.0109 19.4113 22.2431 19.6614 22.3414 19.7537L23.9255 21.5016C23.9138 21.5413 23.8935 21.5779 23.8659 21.6088C23.8094 21.6892 23.6158 21.8798 23.0411 21.9542C22.9707 21.9588 22.9001 21.9588 22.8297 21.9542C22.2876 21.9267 21.7585 21.7782 21.2813 21.5195C21.4302 21.2059 21.5074 20.8631 21.5076 20.516C21.5076 19.8873 21.2591 19.2841 20.8162 18.8379C20.3734 18.3917 19.772 18.1386 19.1434 18.1339H19.057C19.1017 17.5384 19.0153 16.4098 17.8659 15.9125C17.5546 15.7736 17.2182 15.6996 16.8774 15.6952C16.6301 15.6931 16.3846 15.7376 16.1538 15.8262C15.9129 15.3583 15.4964 15.005 14.9955 14.8436C14.7232 14.7455 14.4362 14.6942 14.1468 14.6917C13.6649 14.6848 13.1938 14.8342 12.8039 15.1175C12.6294 14.896 12.4097 14.7141 12.1595 14.5839C11.9093 14.4537 11.6343 14.3783 11.3527 14.3625C11.0711 14.3467 10.7894 14.391 10.5262 14.4924C10.263 14.5939 10.0244 14.7501 9.82624 14.9508C9.33195 14.5726 7.37264 13.3279 2.13195 12.1398C1.87884 12.0803 1.29522 11.9135 0.94088 11.8093C0.881485 12.0937 0.83676 12.3809 0.806885 12.6699C0.806885 12.6699 1.77165 12.9021 1.96222 12.9438C7.32202 14.1349 9.0848 15.3706 9.38257 15.6029C9.2572 15.9079 9.20868 16.239 9.24127 16.5671C9.27386 16.8952 9.38657 17.2103 9.56948 17.4847C9.75239 17.7591 9.99991 17.9843 10.2903 18.1406C10.5806 18.2969 10.9049 18.3795 11.2347 18.381C11.3614 18.3811 11.488 18.3702 11.6128 18.3483C11.6927 18.7454 11.8739 19.1151 12.139 19.4214C12.4041 19.7277 12.7439 19.9602 13.1255 20.0962C13.3536 20.1843 13.5956 20.2307 13.8401 20.2331C13.9938 20.2336 14.1469 20.2146 14.2957 20.1766C14.479 20.5678 14.7673 20.9004 15.1285 21.1375C15.4897 21.3746 15.9095 21.5069 16.3414 21.5195C16.5507 21.519 16.7583 21.4817 16.9548 21.4093C17.1043 21.7729 17.3422 22.0933 17.6469 22.3417C17.9516 22.59 18.3135 22.7583 18.6998 22.8314C19.086 22.9044 19.4844 22.8799 19.8588 22.76C20.2331 22.6401 20.5717 22.4286 20.8436 22.1448C21.4551 22.4991 22.1419 22.7032 22.8476 22.7403C22.9471 22.7402 23.0465 22.7342 23.1453 22.7225C23.9523 22.6212 24.3364 22.3026 24.5032 22.0585C24.5338 22.0146 24.5616 21.9688 24.5865 21.9215C24.7938 21.9866 25.0095 22.0207 25.2267 22.0227C25.6976 22.0133 26.1525 21.8502 26.522 21.5582C26.9113 21.3016 27.1849 20.903 27.2843 20.4475C27.2861 20.4427 27.2861 20.4374 27.2843 20.4326C27.4263 20.4622 27.571 20.4772 27.7161 20.4773C28.1918 20.4711 28.655 20.3239 29.0471 20.0545C29.3451 19.8815 29.591 19.6316 29.7592 19.3309C29.9274 19.0302 30.0115 18.6897 30.0029 18.3453C30.1468 18.376 30.2935 18.392 30.4406 18.3929C30.8838 18.3869 31.3158 18.2536 31.6853 18.0088C31.9304 17.8588 32.1366 17.6531 32.2872 17.4084C32.4378 17.1636 32.5284 16.8868 32.5518 16.6004C32.5824 16.2009 32.4866 15.8019 32.2779 15.4599C34.9538 14.3731 37.7157 13.5116 40.5349 12.8843C40.5113 12.5976 40.4725 12.3123 40.4188 12.0297C37.4353 12.6853 34.5224 13.6286 31.721 14.8465ZM19.1404 22.115C18.7232 22.1169 18.3216 21.9569 18.02 21.6687C17.7185 21.3804 17.5405 20.9864 17.5235 20.5696C17.5235 20.4952 17.5235 20.2987 17.3478 20.2987C17.2723 20.3076 17.2025 20.3436 17.1513 20.3999C17.0489 20.5092 16.926 20.5973 16.7896 20.6591C16.6532 20.7209 16.506 20.7553 16.3563 20.7602C16.176 20.7557 15.9982 20.7173 15.8322 20.647C14.9121 20.2719 14.8972 19.6376 14.9389 19.3845C14.9473 19.3518 14.9487 19.3176 14.9431 19.2842C14.9375 19.2509 14.9249 19.2191 14.9061 19.191L14.8466 19.1374H14.787C14.7278 19.1414 14.6714 19.1644 14.6262 19.2029C14.4012 19.376 14.1269 19.473 13.8431 19.4798C13.6915 19.4815 13.5409 19.4542 13.3994 19.3994C13.0148 19.2566 12.6952 18.9788 12.5001 18.6177C12.3051 18.2567 12.248 17.8371 12.3394 17.4371C12.346 17.408 12.3445 17.3776 12.335 17.3492C12.3256 17.3209 12.3085 17.2957 12.2858 17.2763L12.2084 17.2049L12.128 17.2823C11.8969 17.5147 11.5833 17.6464 11.2555 17.6485C11.0132 17.6485 10.776 17.5788 10.5722 17.4476C10.3684 17.3165 10.2067 17.1295 10.1063 16.9089C10.006 16.6883 9.97119 16.4435 10.0062 16.2037C10.0412 15.9639 10.1444 15.7393 10.3036 15.5566C10.4628 15.3739 10.6712 15.2408 10.904 15.1734C11.1367 15.1059 11.384 15.1069 11.6162 15.1761C11.8485 15.2453 12.0559 15.38 12.2137 15.5639C12.3715 15.7478 12.473 15.9732 12.5061 16.2133L12.5478 16.5527L12.7354 16.255C12.8995 16.0148 13.118 15.8168 13.3731 15.6771C13.6282 15.5374 13.9127 15.4599 14.2034 15.451C14.3893 15.4527 14.5739 15.4818 14.7513 15.5374C15.0063 15.6172 15.2297 15.7752 15.39 15.9889C15.5503 16.2026 15.6393 16.4613 15.6446 16.7284C15.6446 16.8922 15.7726 16.9011 15.7965 16.9011C15.8249 16.8992 15.8525 16.8913 15.8777 16.878C15.9028 16.8646 15.9249 16.8461 15.9424 16.8237C16.0625 16.6987 16.2068 16.5994 16.3665 16.5318C16.5262 16.4643 16.698 16.4299 16.8714 16.4307C17.1118 16.4371 17.3485 16.4907 17.5682 16.5885C18.7592 17.0977 18.2143 18.6073 18.2084 18.6222C18.1071 18.8723 18.1042 18.9825 18.2084 19.048L18.256 19.0689H18.2888C18.3676 19.0597 18.4447 19.0397 18.5181 19.0093C18.7207 18.9293 18.9348 18.882 19.1523 18.8694C19.365 18.8694 19.5757 18.9113 19.7722 18.9927C19.9687 19.0741 20.1473 19.1934 20.2977 19.3438C20.4481 19.4942 20.5674 19.6728 20.6488 19.8693C20.7302 20.0659 20.7721 20.2765 20.7721 20.4892C20.7721 20.7019 20.7302 20.9126 20.6488 21.1091C20.5674 21.3056 20.4481 21.4842 20.2977 21.6346C20.1473 21.785 19.9687 21.9044 19.7722 21.9858C19.5757 22.0672 19.365 22.1091 19.1523 22.1091L19.1404 22.115Z" fill="#000F9F"/>
</svg>
