<svg width="18" height="17" viewBox="0 0 18 17" fill="none" xmlns="http://www.w3.org/2000/svg">
<path d="M16.9799 12.1149L14.0807 3.93542V2.49501C14.0807 2.08945 13.9215 1.70038 13.6379 1.41281C13.3544 1.12524 12.9695 0.962546 12.5673 0.96028H11.0454C11.0066 0.692908 10.8734 0.44863 10.6704 0.272249C10.4674 0.095868 10.2081 -0.000789539 9.94017 4.85795e-06H6.96445C6.69598 0.000680087 6.43651 0.0976597 6.23246 0.273594C6.0284 0.449528 5.89307 0.692939 5.85068 0.96028H4.94946C4.54732 0.962546 4.1624 1.12524 3.87883 1.41281C3.59526 1.70038 3.43609 2.08945 3.4361 2.49501V3.92684L0.536897 12.1149C0.154368 13.205 0.154368 14.3944 0.536897 15.4844C0.660587 15.8487 0.895776 16.1639 1.20856 16.3847C1.52158 16.6086 1.89605 16.7285 2.27982 16.7277H15.2455C15.6193 16.7189 15.9818 16.5963 16.2853 16.3759C16.5887 16.1556 16.819 15.8478 16.9459 15.493C17.3394 14.4039 17.3514 13.2118 16.9799 12.1149ZM15.2795 15.4159H11.241L11.1135 15.0472C10.8245 14.241 10.8245 13.3583 11.1135 12.5522L13.4345 6.00172L15.7556 12.5522C16.0445 13.3583 16.0445 14.241 15.7556 15.0472C15.7228 15.1581 15.6555 15.2555 15.5637 15.325C15.4718 15.3944 15.3603 15.4323 15.2455 15.433L15.2795 15.4159ZM5.84218 3.42956H4.73691V2.57217C4.73687 2.5145 4.75899 2.45906 4.79862 2.4175C4.83826 2.37593 4.89232 2.35147 4.94946 2.34925H5.79967L5.84218 3.42956ZM7.10049 4.28695V1.33753H9.71912V3.93542L7.5681 10.1601L7.41506 10.2887H7.36405L7.21951 10.2201L7.04947 10.1H6.90494H6.60737H6.44583L6.29279 10.1515L6.13975 10.2372H6.08874C5.93184 10.1447 5.75602 10.0896 5.57474 10.0763C5.39347 10.0629 5.21157 10.0916 5.04299 10.1601L7.10049 4.28695ZM5.57012 4.73279L3.69966 10.0143C3.62194 10.2431 3.61507 10.4902 3.67994 10.723C3.74482 10.9558 3.87837 11.1632 4.06288 11.3176C4.24739 11.4721 4.47411 11.5662 4.71295 11.5877C4.95179 11.6091 5.19144 11.5567 5.40007 11.4376C5.58661 11.5493 5.79954 11.6082 6.01647 11.6082C6.23341 11.6082 6.44634 11.5493 6.63287 11.4376H6.68388C6.86526 11.5507 7.07429 11.6106 7.28753 11.6106C7.50078 11.6106 7.7098 11.5507 7.89118 11.4376L8.11223 11.309C8.34722 11.1702 8.52517 10.9513 8.61385 10.6916L10.7394 4.73279H12.3888L9.76163 12.1406C9.38757 13.2086 9.38757 14.3736 9.76163 15.4416H2.27982C2.15814 15.4373 2.04138 15.392 1.94824 15.313C1.85624 15.248 1.78763 15.1548 1.75269 15.0472C1.47208 14.2396 1.47208 13.3598 1.75269 12.5522L4.54137 4.70707L5.57012 4.73279ZM12.7799 3.42956H11.0794V2.27208H12.5843C12.6415 2.2743 12.6955 2.29876 12.7352 2.34033C12.7748 2.3819 12.7969 2.43734 12.7969 2.49501L12.7799 3.42956Z" fill="white"/>
</svg>
