<svg width="24" height="17" viewBox="0 0 24 17" fill="none" xmlns="http://www.w3.org/2000/svg">
<path fill-rule="evenodd" clip-rule="evenodd" d="M0 2.22911C0 0.995889 0.96958 0 2.17023 0H18.4601C19.6608 0 20.6303 0.995889 20.6303 2.22911C20.6303 2.5481 20.3786 2.80669 20.068 2.80669C19.7574 2.80669 19.5057 2.5481 19.5057 2.22911C19.5057 1.63387 19.0396 1.15517 18.4601 1.15517H2.17023C1.59071 1.15517 1.12465 1.63387 1.12465 2.22911V11.308C1.12465 11.9032 1.59072 12.3819 2.17023 12.3819C2.48079 12.3819 2.73255 12.6405 2.73255 12.9595C2.73255 13.2785 2.48079 13.5371 2.17023 13.5371C0.969572 13.5371 0 12.5412 0 11.308V2.22911ZM5.54724 4.62324C4.97049 4.62324 4.50292 5.10347 4.50292 5.6959V6.71698H22.8753V5.6959C22.8753 5.10347 22.4078 4.62324 21.831 4.62324H5.54724ZM22.8753 7.87214H4.50292V8.26409H22.8753V7.87214ZM22.8753 9.41926H4.50292V14.7722C4.50292 15.3646 4.97049 15.8448 5.54724 15.8448H21.831C22.4078 15.8448 22.8753 15.3646 22.8753 14.7722V9.41926ZM3.37827 5.6959C3.37827 4.46551 4.34935 3.46808 5.54724 3.46808H21.831C23.0289 3.46808 24 4.46551 24 5.6959V14.7722C24 16.0026 23.0289 17 21.831 17H5.54724C4.34938 17 3.37827 16.0026 3.37827 14.7722V5.6959ZM16.0878 12.6366C16.0878 11.6625 16.8616 10.8677 17.8099 10.8677C18.0363 10.8677 18.2456 10.9158 18.4338 10.9945C18.6219 10.9158 18.8313 10.8677 19.0576 10.8677C20.0059 10.8677 20.7797 11.6625 20.7797 12.6366C20.7797 13.6163 20.0003 14.3964 19.0576 14.3964C18.8367 14.3964 18.627 14.354 18.4338 14.276C18.2405 14.354 18.0308 14.3964 17.8099 14.3964C16.8672 14.3964 16.0878 13.6163 16.0878 12.6366ZM17.8099 12.0229C17.4827 12.0229 17.2124 12.3005 17.2124 12.6366C17.2124 12.9669 17.4771 13.2412 17.8099 13.2412C17.93 13.2412 18.0347 13.2069 18.127 13.1452C18.3135 13.0205 18.554 13.0205 18.7405 13.1452C18.8328 13.2069 18.9375 13.2412 19.0576 13.2412C19.3904 13.2412 19.655 12.9669 19.655 12.6366C19.655 12.3005 19.3848 12.0229 19.0576 12.0229C18.9518 12.0229 18.8459 12.0575 18.7405 12.1279C18.554 12.2526 18.3135 12.2526 18.127 12.1279C18.0216 12.0575 17.9157 12.0229 17.8099 12.0229Z" fill="#363852"/>
</svg>
