<svg width="35" height="35" viewBox="0 0 35 35" fill="none" xmlns="http://www.w3.org/2000/svg">
    <path d="M31.4409 15.7608H31.2433L28.2855 8.8992C28.0363 8.33541 27.6288 7.85591 27.1122 7.51882C26.5957 7.18172 25.9924 7.0015 25.3754 7L8.53165 7C7.91244 7.00139 7.30693 7.18222 6.78857 7.52054C6.27022 7.85886 5.86127 8.34014 5.61135 8.90601L2.65697 15.7608H2.45592C1.80287 15.7778 1.18192 16.0473 0.723834 16.5125C0.265752 16.9777 0.00629657 17.6023 0.000113103 18.2548C-0.00607036 18.9073 0.241501 19.5367 0.690684 20.0105C1.13987 20.4842 1.7556 20.7654 2.40821 20.7947H2.61607L4.41528 26.1554C4.62757 26.7839 5.03234 27.3297 5.57232 27.7157C6.1123 28.1018 6.76015 28.3084 7.42419 28.3065H26.476C27.1401 28.3084 27.7879 28.1018 28.3279 27.7157C28.8679 27.3297 29.2727 26.7839 29.4849 26.1554L31.2841 20.7947H31.5091C32.1567 20.7848 32.7758 20.5273 33.2392 20.0753C33.7025 19.6232 33.9748 19.011 34 18.3646V18.2795C33.9982 17.9461 33.9305 17.6163 33.8008 17.3091C33.6711 17.0019 33.482 16.7233 33.2442 16.4892C33.0064 16.2552 32.7247 16.0704 32.4153 15.9454C32.1058 15.8204 31.7747 15.7577 31.4409 15.7608ZM28.2548 25.7538C28.1297 26.1247 27.8909 26.4469 27.5722 26.6747C27.2536 26.9026 26.8713 27.0245 26.4794 27.0233H7.42759C7.03539 27.0242 6.65279 26.9022 6.33368 26.6744C6.01458 26.4467 5.77505 26.1247 5.64883 25.7538L3.98933 20.8016H29.9177L28.265 25.7197L28.2548 25.7538ZM12.1369 12.7282L12.113 12.7453L12.1914 12.8644V12.8916C12.1931 12.9029 12.1931 12.9144 12.1914 12.9256L13.4181 15.7608H4.07112L6.79719 9.41655C6.94443 9.0821 7.18576 8.79759 7.49187 8.59758C7.79797 8.39758 8.15565 8.29071 8.52143 8.28996H10.2252L12.1369 12.7282ZM20.6559 12.0067H13.2409L11.636 8.28656H22.2711L20.6559 12.0067ZM29.8257 15.7506H20.4616L21.6816 12.9154L21.7088 12.8644L21.7974 12.7419L21.7667 12.7214L23.6818 8.29677H25.3856C25.7501 8.29716 26.1067 8.40316 26.4122 8.60192C26.7176 8.80067 26.9588 9.08365 27.1064 9.41655L27.2905 9.83519L29.8257 15.7506ZM20.1004 13.2796L19.0373 15.7506H14.8596L13.7896 13.2898L20.1004 13.2796ZM32.6779 18.2693C32.6815 18.5281 32.6035 18.7814 32.4549 18.9934C32.3062 19.2054 32.0945 19.3653 31.8498 19.4503L31.751 19.4844V19.515H2.45932C2.13126 19.515 1.81664 19.3848 1.58466 19.1531C1.35269 18.9214 1.22237 18.6072 1.22237 18.2795C1.22237 17.9518 1.35269 17.6376 1.58466 17.4059C1.81664 17.1742 2.13126 17.044 2.45932 17.044H31.4477C31.7761 17.044 32.0911 17.174 32.3236 17.4057C32.5561 17.6373 32.6872 17.9515 32.6881 18.2795L32.6779 18.2693Z" fill="#F8A611"/>
    </svg>