<svg width="12" height="12" viewBox="0 0 12 12" fill="none" xmlns="http://www.w3.org/2000/svg">
<path d="M10.9018 0.496338H1.97323C1.6989 0.497996 1.43627 0.607709 1.24229 0.801694C1.0483 0.995679 0.93859 1.2583 0.936932 1.53263V3.20714C0.936083 3.27044 0.947924 3.33327 0.971757 3.39191C0.99559 3.45056 1.03093 3.50384 1.0757 3.54861C1.12046 3.59337 1.17374 3.62871 1.23239 3.65255C1.29104 3.67638 1.35387 3.68822 1.41717 3.68737H1.49299V10.4612C1.49299 10.7377 1.60284 11.0029 1.79837 11.1984C1.9939 11.394 2.25909 11.5038 2.53561 11.5038H10.3457C10.4824 11.5038 10.6176 11.4768 10.7438 11.4243C10.8699 11.3719 10.9844 11.295 11.0808 11.1981C11.1771 11.1012 11.2533 10.9862 11.305 10.8597C11.3567 10.7333 11.3829 10.5978 11.382 10.4612V3.68737H11.4579C11.5212 3.68822 11.584 3.67638 11.6426 3.65255C11.7013 3.62871 11.7546 3.59337 11.7993 3.54861C11.8441 3.50384 11.8794 3.45056 11.9033 3.39191C11.9271 3.33327 11.9389 3.27044 11.9381 3.20714V1.53263C11.9364 1.2583 11.8267 0.995679 11.6327 0.801694C11.4388 0.607709 11.1761 0.497996 10.9018 0.496338ZM10.9839 1.53263V2.7269H6.92091V1.46313H10.9081C10.9272 1.46306 10.9456 1.47018 10.9596 1.48306C10.9737 1.49594 10.9824 1.51364 10.9839 1.53263ZM10.3521 10.5434H2.53561C2.51382 10.5434 2.49293 10.5347 2.47752 10.5193C2.46212 10.5039 2.45346 10.483 2.45346 10.4612V3.68737H10.4152V10.4612C10.4161 10.4712 10.415 10.4812 10.412 10.4907C10.4089 10.5003 10.404 10.5091 10.3976 10.5167C10.3911 10.5244 10.3832 10.5307 10.3743 10.5352C10.3654 10.5398 10.3557 10.5426 10.3457 10.5434H10.3521ZM5.99203 1.45681V2.72058H1.8974V1.53263C1.8974 1.51252 1.90539 1.49324 1.91961 1.47902C1.93383 1.4648 1.95312 1.45681 1.97323 1.45681H5.99203Z" fill="#F8A611"/>
<path d="M8.13335 4.40137H4.72747C4.47069 4.42159 4.23097 4.53787 4.05613 4.72702C3.88129 4.91617 3.78418 5.16429 3.78418 5.42187C3.78418 5.67945 3.88129 5.92756 4.05613 6.11671C4.23097 6.30586 4.47069 6.42214 4.72747 6.44236H8.11439C8.37117 6.42214 8.6109 6.30586 8.78574 6.11671C8.96058 5.92756 9.05768 5.67945 9.05768 5.42187C9.05768 5.16429 8.96058 4.91617 8.78574 4.72702C8.6109 4.53787 8.37117 4.42159 8.11439 4.40137H8.13335ZM8.19022 5.42503C8.1903 5.44074 8.18451 5.45593 8.174 5.46761C8.16348 5.4793 8.14899 5.48664 8.13335 5.48821H4.72747C4.71183 5.48664 4.69734 5.4793 4.68682 5.46761C4.67631 5.45593 4.67052 5.44074 4.6706 5.42503C4.66971 5.41704 4.67052 5.40896 4.67297 5.40132C4.67543 5.39367 4.67948 5.38663 4.68485 5.38066C4.69022 5.37469 4.6968 5.36993 4.70415 5.36668C4.71149 5.36344 4.71944 5.36179 4.72747 5.36184H8.11439C8.12368 5.35994 8.13327 5.36015 8.14247 5.36247C8.15166 5.36478 8.16021 5.36913 8.16749 5.3752C8.17478 5.38127 8.1806 5.3889 8.18453 5.39752C8.18847 5.40615 8.19041 5.41555 8.19022 5.42503Z" fill="#F8A611"/>
</svg>
