<svg width="17" height="17" viewBox="0 0 17 17" fill="none" xmlns="http://www.w3.org/2000/svg">
<path fill-rule="evenodd" clip-rule="evenodd" d="M13.6177 7.65995C13.6177 10.9503 10.9503 13.6177 7.65995 13.6177C4.36958 13.6177 1.70221 10.9503 1.70221 7.65995C1.70221 4.36958 4.36958 1.70221 7.65995 1.70221C10.9503 1.70221 13.6177 4.36958 13.6177 7.65995ZM13.6448 12.4412C14.6931 11.1308 15.3199 9.46856 15.3199 7.65995C15.3199 3.42947 11.8904 0 7.65995 0C3.42947 0 0 3.42947 0 7.65995C0 11.8904 3.42947 15.3199 7.65995 15.3199C9.46856 15.3199 11.1308 14.6931 12.4412 13.6448L14.7181 15.9217C15.0504 16.2541 15.5893 16.2541 15.9217 15.9217C16.2541 15.5893 16.2541 15.0504 15.9217 14.7181L13.6448 12.4412Z" fill="#0CAEBB"/>
</svg>
