<svg width="43" height="43" viewBox="0 0 43 43" fill="none" xmlns="http://www.w3.org/2000/svg">
<circle cx="21.5" cy="21.5" r="21.166" fill="#F3FBFC" stroke="#E0E0E0" stroke-width="0.667999"/>
<path fill-rule="evenodd" clip-rule="evenodd" d="M21.501 20.7543C22.6179 20.7543 23.5265 19.5921 23.5265 18.1636C23.5265 16.8411 22.7126 15.9524 21.501 15.9524C20.2912 15.9524 19.4782 16.8411 19.4782 18.1636C19.4782 19.5921 20.3856 20.7543 21.501 20.7543ZM32 17.7037C32.0009 17.3432 31.9598 16.9892 31.8463 16.6472C31.5154 15.6496 30.9592 14.8225 30.0273 14.2848C27.8618 13.0356 25.6946 11.7902 23.5343 10.5332C22.9469 10.1912 22.3212 10.0194 21.6487 10.0018C20.9074 9.98263 20.2031 10.1161 19.5511 10.4943C17.3703 11.7582 15.1762 13.0003 13.0053 14.2809C11.7111 15.0448 11.0299 16.2187 11.0137 17.7193C10.9874 20.227 11.0074 22.7354 11.0056 25.2435C11.0053 25.6298 11.053 26.0074 11.1812 26.3715C11.5229 27.341 12.0746 28.145 12.9877 28.6701C15.1363 29.9059 17.2855 31.1411 19.4267 32.3889C19.9892 32.7165 20.5819 32.9107 21.2283 32.9457C22.0179 32.9888 22.7689 32.8607 23.4642 32.4577C25.6305 31.2024 27.7971 29.9481 29.9706 28.7049C30.5768 28.3578 31.0449 27.8856 31.4006 27.2949C31.7441 26.7249 31.9859 26.1157 31.9919 25.4428C32.003 24.1214 31.9952 22.8 31.9952 21.4787H31.9988C31.9988 20.2199 31.9973 18.9616 32 17.7037ZM21.501 15.055C23.2229 15.055 24.4255 16.3333 24.4255 18.1639C24.4255 20.0873 23.1135 21.6522 21.501 21.6522C19.89 21.6522 18.5792 20.0873 18.5792 18.1639C18.5792 16.3333 19.7809 15.055 21.501 15.055ZM26.2559 27.7509C26.0078 27.7509 25.8064 27.5502 25.8064 27.3021C25.8064 27.095 25.7992 26.6327 25.7878 26.5295C25.5145 24.0313 22.6985 23.7617 21.5007 23.7617C20.0836 23.7617 17.6475 24.0891 17.2514 26.2812C17.2199 26.4571 17.1935 27.163 17.1935 27.4487C17.1935 27.6968 16.9922 27.8976 16.744 27.8976C16.4959 27.8976 16.2945 27.6968 16.2945 27.4487C16.2945 27.2602 16.3134 26.4185 16.3664 26.1223C16.7407 24.0517 18.6119 22.8641 21.5007 22.8641C24.5001 22.8641 26.4369 24.198 26.6814 26.4323C26.7033 26.6336 26.7051 27.2955 26.7051 27.3021C26.7054 27.5502 26.504 27.7509 26.2559 27.7509Z" fill="#85D7DD"/>
</svg>
