<svg width="62" height="41" viewBox="0 0 62 41" fill="none" xmlns="http://www.w3.org/2000/svg">
<g clip-path="url(#clip0_8220_40346)">
<rect width="61.25" height="40.425" transform="translate(0.375 0.173584)" fill="white"/>
<path d="M30.9996 40.5918C20.9096 40.5918 10.8199 40.5945 0.73069 40.5999C0.432451 40.5999 0.372803 40.5428 0.372803 40.2501C0.383142 27.0083 0.383539 13.7665 0.373996 0.524745C0.373996 0.232064 0.432451 0.174927 0.731883 0.174927C20.9096 0.184255 41.088 0.184255 61.2673 0.174927C61.5655 0.174927 61.6252 0.232064 61.6252 0.524745C61.6156 13.7681 61.6156 27.0103 61.6252 40.2513C61.6252 40.544 61.5667 40.6011 61.2673 40.6011C51.1789 40.5894 41.0896 40.5863 30.9996 40.5918ZM19.651 20.3909C19.651 14.2971 19.6538 8.20287 19.6593 2.10826C19.6593 1.71413 19.552 1.61851 19.1559 1.61968C13.5315 1.63211 7.90672 1.63211 2.28153 1.61968C1.92365 1.61968 1.78526 1.67681 1.78526 2.07561C1.79799 14.2493 1.79799 26.4234 1.78526 38.5978C1.78526 38.9791 1.89024 39.0642 2.2696 39.0642C7.90911 39.0518 13.5486 39.0518 19.1881 39.0642C19.5925 39.0642 19.6581 38.9476 19.657 38.585C19.6466 32.5222 19.6446 26.4576 19.651 20.3909ZM22.0154 20.3221C22.0154 26.416 22.0122 32.5094 22.0059 38.6025C22.0059 38.9744 22.0918 39.0689 22.4831 39.0689C28.1353 39.0549 33.7883 39.0549 39.4422 39.0689C39.812 39.0689 39.8955 38.9663 39.8955 38.6176C39.8859 26.4315 39.8859 14.245 39.8955 2.05812C39.8955 1.7083 39.8 1.61035 39.4398 1.61151C33.7859 1.62162 28.1325 1.62162 22.4795 1.61151C22.0834 1.61151 22.0023 1.71879 22.0023 2.08493C22.0174 8.164 22.0218 14.2431 22.0154 20.3221ZM60.0171 20.3886C60.0171 14.2792 60.0191 8.17022 60.023 2.06161C60.023 1.75144 59.9777 1.61968 59.6055 1.62084C53.9358 1.63328 48.2665 1.63328 42.5975 1.62084C42.2396 1.62084 42.1728 1.73745 42.1728 2.05462C42.1816 14.2446 42.1816 26.4342 42.1728 38.6235C42.1728 38.9861 42.2838 39.0631 42.6357 39.0619C48.276 39.0526 53.9163 39.0526 59.5566 39.0619C59.9574 39.0619 60.0338 38.9453 60.0266 38.5838C60.0155 32.5187 60.0139 26.4537 60.0219 20.3886H60.0171Z" fill="white"/>
<path d="M19.6509 20.392C19.6509 26.4555 19.6533 32.5209 19.6581 38.5884C19.6581 38.9463 19.5937 39.0688 19.1892 39.0676C13.5489 39.0528 7.90943 39.0528 2.27072 39.0676C1.89136 39.0676 1.78638 38.9825 1.78638 38.6012C1.79672 26.4275 1.79672 14.2534 1.78638 2.07898C1.78638 1.68018 1.92118 1.62305 2.28265 1.62305C7.90704 1.63315 13.5318 1.63315 19.157 1.62305C19.5531 1.62305 19.6616 1.7175 19.6605 2.11163C19.6469 8.20624 19.6438 14.2997 19.6509 20.392ZM6.19197 25.8445C5.58117 25.8445 4.97038 25.8445 4.35959 25.8445C4.17348 25.8445 4.06254 25.8736 4.06254 26.0963C4.06254 27.3452 4.03033 28.5975 4.31664 29.8277C4.84631 32.1062 6.17527 33.6757 8.55164 34.2646C9.90929 34.5982 11.3287 34.6109 12.6924 34.3019C14.7932 33.8355 16.2092 32.617 16.8749 30.6137C17.4774 28.7928 17.5209 26.8392 17.0002 24.9944C16.4275 22.8687 15.0425 21.263 13.4535 19.7856C12.3047 18.721 11.0807 17.731 10.075 16.5206C8.89998 15.1109 8.39655 13.5274 8.76279 11.72C8.96321 10.6705 9.66348 10.1178 10.7789 10.0875C11.9456 10.0455 12.6614 10.5539 12.9596 11.58C13.1565 12.2634 13.1171 12.9595 13.1087 13.6533C13.1087 13.9145 13.1887 13.9926 13.4559 13.9903C14.6337 13.9779 15.8112 13.9779 16.9882 13.9903C17.2364 13.9903 17.3068 13.9133 17.3103 13.6743C17.3258 12.6633 17.2805 11.6582 17.036 10.6728C16.4741 8.40719 15.101 6.90297 12.7413 6.35842C11.6066 6.0993 10.4302 6.0652 9.28173 6.25814C6.91251 6.63594 5.29725 7.91745 4.61488 10.1866C4.00665 12.1429 4.04003 14.2363 4.71032 16.1732C5.42609 18.2534 6.89581 19.7879 8.49557 21.2397C9.48692 22.1364 10.5152 22.9969 11.3801 24.0196C12.6125 25.4748 13.2042 27.1003 12.7628 28.9952C12.7119 29.2606 12.6016 29.5116 12.4397 29.7304C12.2778 29.9491 12.0683 30.1301 11.8263 30.2603C10.1943 31.1209 8.42757 30.1776 8.32498 28.3772C8.28561 27.6775 8.28322 26.9849 8.3035 26.2899C8.31305 25.9459 8.23073 25.8107 7.85495 25.8328C7.29307 25.8666 6.74431 25.8433 6.19197 25.8445Z" fill="#0CAEBB"/>
<path d="M22.0163 20.3234C22.0163 14.2451 22.0135 8.16606 22.0079 2.08622C22.0079 1.72008 22.0843 1.61164 22.4851 1.6128C28.1381 1.62679 33.7916 1.62679 39.4454 1.6128C39.8033 1.6128 39.9011 1.70492 39.9011 2.0594C39.8916 14.2455 39.8916 26.432 39.9011 38.6189C39.9011 38.9687 39.8176 39.0713 39.4478 39.0702C33.7948 39.0585 28.1417 39.0585 22.4887 39.0702C22.0974 39.0702 22.0115 38.9722 22.0115 38.6037C22.0219 32.5099 22.0234 26.4165 22.0163 20.3234ZM38.7296 34.1914C38.6891 33.9255 38.6569 33.7005 38.6211 33.4777C38.1129 30.3682 37.6047 27.2611 37.0965 24.1563C36.5883 21.0514 36.0813 17.9439 35.5754 14.8336C35.1579 12.2869 34.7376 9.74025 34.3145 7.19357C34.2853 7.07791 34.2873 6.95682 34.3203 6.84215C34.3534 6.72748 34.4163 6.62316 34.503 6.53941C34.8895 6.15228 35.177 5.68818 35.4752 5.23342C35.6291 5.00021 35.6375 4.86261 35.3714 4.6947C34.7261 4.28541 34.095 3.85514 33.4746 3.41203C33.2611 3.25928 33.1621 3.28144 32.9903 3.47267C32.3592 4.17231 31.8546 4.27725 30.973 3.94609C30.6561 3.80487 30.3175 3.71583 29.9709 3.68256C29.2102 3.64821 28.4571 3.84426 27.8147 4.24392C27.1722 4.64359 26.6716 5.22739 26.3813 5.91557C26.3002 6.10797 26.3503 6.19076 26.5125 6.28404C26.812 6.45779 27.0959 6.65835 27.3965 6.82859C27.579 6.93121 27.6101 7.05364 27.5779 7.24837C26.8478 11.6856 26.122 16.1225 25.4007 20.559C24.6794 24.9954 23.9521 29.4319 23.2188 33.8684C23.1723 34.1541 23.2271 34.1995 23.4979 34.196C24.6026 34.1832 25.7073 34.1716 26.812 34.2019C27.1794 34.2124 27.2725 34.0759 27.3166 33.7634C27.517 32.3455 27.7389 30.9299 27.9429 29.512C27.9787 29.2624 28.0538 29.1493 28.3473 29.1517C29.9459 29.168 31.5444 29.1645 33.143 29.1517C33.4114 29.1517 33.5104 29.2135 33.551 29.4933C33.7574 30.9544 34.0079 32.4085 34.2107 33.8695C34.2513 34.1681 34.3777 34.2019 34.6258 34.1925C34.9837 34.1774 35.3524 34.1925 35.7162 34.1925L38.7296 34.1914Z" fill="#ED7424"/>
<path d="M60.0232 20.3896C60.0232 26.4531 60.026 32.5194 60.0315 38.5883C60.0315 38.9487 59.9623 39.0676 59.5615 39.0664C53.9212 39.0517 48.2809 39.0517 42.6406 39.0664C42.2887 39.0664 42.1777 38.9906 42.1777 38.628C42.1873 26.438 42.1873 14.2484 42.1777 2.05914C42.1777 1.73847 42.2422 1.62537 42.6024 1.62537C48.2714 1.6378 53.9407 1.6378 59.6104 1.62537C59.9826 1.62537 60.028 1.75596 60.028 2.06614C60.0184 8.17241 60.0168 14.2802 60.0232 20.3896ZM57.8759 20.3185C57.8759 17.9607 57.8759 15.6041 57.8759 13.2463C57.8871 12.5366 57.8255 11.8276 57.6921 11.1299C57.1816 8.63339 55.7512 6.9601 53.1589 6.35491C52.0095 6.09254 50.8182 6.05529 49.654 6.2453C47.3134 6.60794 45.6469 7.80782 44.8416 10.0385C44.4706 11.067 44.3501 12.1374 44.3501 13.2195C44.3501 17.8908 44.3501 22.5628 44.3501 27.2356C44.3456 27.9748 44.4006 28.7133 44.5147 29.4441C44.9275 32.0001 46.5666 33.7305 49.153 34.3136C50.3605 34.5817 51.612 34.6004 52.8273 34.3684C54.9746 33.9742 56.5099 32.8315 57.3116 30.82C57.6802 29.8764 57.8666 28.8741 57.8615 27.8641C57.8759 25.3454 57.8663 22.8325 57.8663 20.3185H57.8759Z" fill="#F8A611"/>
<path d="M6.19295 25.8442C6.74529 25.8442 7.29882 25.8663 7.84997 25.836C8.22575 25.8139 8.30806 25.9526 8.29852 26.2931C8.27824 26.9928 8.28062 27.6854 8.31999 28.3804C8.42259 30.1808 10.1894 31.1241 11.8273 30.2601C12.0708 30.1301 12.2817 29.9489 12.4447 29.7295C12.6077 29.51 12.7187 29.2579 12.7697 28.9914C13.2111 27.0965 12.6194 25.471 11.3871 24.0158C10.5222 22.9932 9.49386 22.1326 8.50251 21.2359C6.89679 19.79 5.4223 18.2496 4.7113 16.1729C4.04101 14.236 4.00763 12.1427 4.61586 10.1863C5.29823 7.91717 6.9135 6.63566 9.27674 6.25203C10.4252 6.05909 11.6016 6.09319 12.7363 6.35231C15.1008 6.90153 16.4739 8.40575 17.031 10.6667C17.2755 11.6521 17.3209 12.6572 17.3053 13.6682C17.3053 13.9014 17.2314 13.9865 16.9832 13.9842C15.8054 13.9741 14.628 13.9741 13.4509 13.9842C13.1837 13.9842 13.1014 13.9084 13.1038 13.6472C13.1121 12.9476 13.1515 12.2572 12.9546 11.5739C12.6624 10.5536 11.9466 10.0452 10.7799 10.0872C9.66445 10.1175 8.96419 10.6702 8.759 11.7197C8.40111 13.5271 8.90096 15.1106 10.0713 16.5204C11.0769 17.7272 12.3009 18.7172 13.4497 19.7853C15.0387 21.2592 16.4238 22.8684 16.9964 24.9941C17.518 26.8374 17.4761 28.7896 16.8759 30.6099C16.2102 32.6132 14.7942 33.8352 12.6934 34.2981C11.3297 34.6072 9.91027 34.5944 8.55262 34.2608C6.17625 33.6778 4.84729 32.1024 4.31762 29.824C4.03131 28.5961 4.06471 27.3437 4.06352 26.0926C4.06352 25.8698 4.17446 25.8384 4.36057 25.8407C4.97136 25.8477 5.58215 25.8442 6.19295 25.8442ZM15.5923 27.5326C15.566 27.1945 15.5601 26.8517 15.5099 26.5158C15.2642 24.8834 14.4172 23.5377 13.3173 22.3367C11.7855 20.6645 10.1357 19.102 8.61704 17.4159C7.13419 15.7683 6.33968 13.9679 6.74171 11.7314C7.06261 9.9601 8.04323 8.86051 9.78971 8.4932C10.4195 8.37931 11.064 8.36513 11.6984 8.45122C13.2397 8.6133 14.4077 9.59396 14.7727 11.0644C14.8511 11.4102 14.9057 11.7608 14.9361 12.1138C14.966 12.4042 15.1843 12.3365 15.3561 12.3575C15.5815 12.3855 15.566 12.2304 15.5708 12.0823C15.6075 11.1661 15.3305 10.2642 14.7836 9.51923C14.2367 8.77429 13.4512 8.22898 12.5514 7.96964C11.7934 7.76446 11.0023 7.70194 10.2204 7.7854C8.65163 7.93232 7.32984 8.57133 6.6415 10.0102C5.68713 12.0089 5.66447 14.0495 6.7775 16.0201C7.32745 16.9938 8.08975 17.8252 8.85682 18.6391C10.2263 20.0897 11.6579 21.4866 12.9928 22.9675C14.3766 24.5009 15.1831 26.2663 14.8669 28.3862C14.5949 30.2088 13.427 32.4488 10.4446 32.2494C8.45837 32.1176 7.12465 31.1113 6.62719 29.2281C6.48045 28.6719 6.46852 28.1052 6.42796 27.542C6.40887 27.2796 6.26572 27.2866 6.08439 27.2913C5.94362 27.2913 5.78734 27.2598 5.78615 27.4872C5.7778 28.9727 6.02474 30.3895 7.11749 31.5112C8.2842 32.7088 9.79926 33.0015 11.4014 32.8685C13.1789 32.7204 14.3325 31.6896 15.0483 30.1435C15.4222 29.3224 15.6079 28.4313 15.5923 27.5326Z" fill="white"/>
<path d="M38.7292 34.1902H35.7158C35.3519 34.1902 34.988 34.1785 34.6254 34.1902C34.3773 34.1995 34.2508 34.1657 34.2102 33.8672C34.0074 32.4061 33.7569 30.9521 33.5505 29.491C33.51 29.2111 33.411 29.1482 33.1425 29.1493C31.544 29.1598 29.9454 29.1633 28.3469 29.1493C28.0534 29.1493 27.9782 29.2601 27.9424 29.5096C27.7384 30.9276 27.5166 32.3432 27.3161 33.7611C27.272 34.0736 27.179 34.21 26.8115 34.1995C25.7068 34.1692 24.6022 34.1809 23.4975 34.1937C23.2267 34.1937 23.1718 34.1517 23.2183 33.866C23.9564 29.435 24.6849 24.9985 25.4038 20.5566C26.1228 16.1147 26.8485 11.6782 27.581 7.2472C27.6132 7.05247 27.581 6.93003 27.3996 6.82742C27.099 6.65717 26.8151 6.45661 26.5157 6.28287C26.3534 6.18958 26.3033 6.10679 26.3844 5.91439C26.6742 5.22636 27.174 4.64247 27.8158 4.24241C28.4576 3.84235 29.21 3.64562 29.9705 3.67905C30.3171 3.71232 30.6557 3.80137 30.9726 3.94258C31.8541 4.27375 32.3588 4.16763 32.9898 3.46916C33.1616 3.27793 33.2606 3.25577 33.4742 3.40853C34.0945 3.85396 34.7256 4.28424 35.371 4.6912C35.637 4.85911 35.6287 4.99554 35.4748 5.22992C35.1765 5.68468 34.889 6.14877 34.5025 6.5359C34.4158 6.61966 34.3529 6.72398 34.3199 6.83865C34.2868 6.95332 34.2848 7.07441 34.314 7.19006C34.7363 9.73674 35.1567 12.2834 35.575 14.8301C36.084 17.9396 36.591 21.0491 37.096 24.1586C37.601 27.2681 38.1092 30.3752 38.6206 33.4801C38.6564 33.6993 38.6886 33.9243 38.7292 34.1902ZM30.8425 27.3839C32.0915 27.3839 33.3477 27.4049 34.5908 27.3722C35.0048 27.3618 35.124 27.4982 35.1801 27.8713C35.3901 29.2706 35.6406 30.6699 35.8553 32.0691C35.8947 32.3245 35.952 32.3816 36.2275 32.3537C36.7047 32.3047 36.5103 31.9922 36.4781 31.7916C36.1202 29.5761 35.7468 27.3711 35.3841 25.1602C34.4759 19.6331 33.5724 14.1052 32.6737 8.57651C32.6379 8.35379 32.5807 8.25351 32.3325 8.25701C31.3591 8.26789 30.3852 8.26789 29.411 8.25701C29.1891 8.25701 29.1103 8.34213 29.0758 8.54619C28.585 11.5002 28.0916 14.4515 27.5953 17.4001C27.0569 20.6161 26.5196 23.8329 25.9836 27.0504C25.7116 28.6728 25.4368 30.2944 25.1593 31.9152C25.1271 32.0995 25.1402 32.1974 25.3812 32.272C25.8023 32.4015 25.8035 32.1461 25.8464 31.8942C26.085 30.495 26.3236 29.0957 26.5395 27.6964C26.5789 27.4364 26.6684 27.3757 26.9189 27.3781C28.2264 27.3897 29.5338 27.3839 30.8425 27.3839ZM29.8046 4.85444C29.1426 4.82063 28.6666 5.13896 28.2932 5.63104C28.2025 5.74765 27.9353 5.91789 28.2562 6.05665C28.4554 6.14294 28.6308 6.51025 28.9254 6.10913C29.3668 5.51094 29.7402 5.4433 30.4393 5.73132C30.7972 5.87825 31.1551 6.05199 31.5225 6.16976C31.9113 6.29811 32.3324 6.29851 32.7214 6.17091C33.1105 6.04331 33.4461 5.79472 33.677 5.46313C33.7724 5.33136 33.9394 5.16578 33.6686 5.06084C33.473 4.98621 33.3108 4.63639 33.0268 5.00953C32.6248 5.54242 32.2598 5.62638 31.6156 5.40716C31.3567 5.31854 31.1074 5.20076 30.8545 5.09582C30.5274 4.93956 30.1687 4.85707 29.8046 4.85444Z" fill="white"/>
<path d="M57.8662 20.3175C57.8662 22.8315 57.8721 25.3444 57.8662 27.8584C57.8713 28.8685 57.6848 29.8707 57.3162 30.8144C56.5146 32.8258 54.9744 33.9686 52.8319 34.3627C51.6166 34.5947 50.3651 34.5761 49.1576 34.3079C46.5713 33.7249 44.9321 31.9944 44.5194 29.4384C44.4031 28.7093 44.3457 27.9725 44.3476 27.2346C44.3524 22.5626 44.3524 17.8905 44.3476 13.2185C44.3476 12.1329 44.4669 11.066 44.8391 10.0375C45.6443 7.80683 47.3109 6.60695 49.6515 6.24431C50.8157 6.05429 52.0069 6.09155 53.1564 6.35392C55.7487 6.9591 57.179 8.6324 57.6896 11.1289C57.8238 11.8266 57.8862 12.5356 57.8757 13.2453C57.8674 15.6031 57.8757 17.9597 57.8757 20.3175H57.8662ZM46.347 20.0913H46.2074C46.2074 21.1839 46.199 22.2776 46.2074 23.3714C46.2253 25.145 46.044 26.9244 46.2706 28.6921C46.5092 30.5847 47.522 31.9291 49.4176 32.5495C50.2232 32.796 51.0689 32.8929 51.9109 32.8352C53.556 32.757 54.7478 32.0096 55.4278 30.5299C55.8823 29.541 56.0242 28.4893 56.0242 27.4165C56.029 22.5011 56.029 17.5858 56.0242 12.6705C56.0266 12.3298 55.9958 11.9898 55.9324 11.6548C55.5745 9.84977 54.669 8.49014 52.7591 7.97591C51.7422 7.70753 50.6695 7.71641 49.6574 8.00156C48.7135 8.2433 47.8773 8.78207 47.2779 9.53467C46.6785 10.2873 46.3492 11.2118 46.341 12.1656C46.3172 14.8067 46.347 17.449 46.347 20.0913Z" fill="white"/>
<path d="M15.5926 27.5327C15.6083 28.4314 15.4226 29.3225 15.0486 30.1435C14.3329 31.6921 13.1817 32.7229 11.4041 32.871C9.79962 33.0016 8.28456 32.7089 7.12024 31.5113C6.02868 30.3896 5.78055 28.9728 5.7889 27.4873C5.7889 27.2599 5.94637 27.296 6.08714 27.2914C6.26847 27.2914 6.41162 27.2797 6.43071 27.5421C6.47127 28.1053 6.4832 28.672 6.62993 29.2282C7.1262 31.1114 8.45993 32.1177 10.4474 32.2495C13.4298 32.4489 14.5977 30.2088 14.8697 28.3863C15.1858 26.2664 14.3794 24.501 12.9956 22.9676C11.6606 21.4867 10.2291 20.0898 8.85957 18.6392C8.09131 17.8229 7.3302 16.9939 6.78025 16.0202C5.66722 14.0496 5.69346 12.009 6.64425 10.0103C7.32901 8.57142 8.6508 7.93242 10.2231 7.7855C11.0051 7.70204 11.7961 7.76456 12.5542 7.96973C13.4539 8.22907 14.2394 8.77439 14.7863 9.51932C15.3332 10.2643 15.6102 11.1662 15.5735 12.0824C15.5735 12.2305 15.5843 12.3856 15.3588 12.3576C15.187 12.3366 14.9687 12.4043 14.9389 12.1139C14.9085 11.7609 14.8539 11.4103 14.7754 11.0645C14.4104 9.59406 13.2425 8.61573 11.7012 8.45132C11.0668 8.36523 10.4223 8.3794 9.79246 8.4933C8.04359 8.86061 7.06298 9.9602 6.74207 11.7314C6.33766 13.968 7.13455 15.7684 8.6174 17.416C10.136 19.1021 11.7859 20.6646 13.3177 22.3368C14.4176 23.5378 15.2646 24.8823 15.5103 26.5159C15.5604 26.8518 15.5664 27.1946 15.5926 27.5327Z" fill="#0CAEBB"/>
<path d="M30.8431 27.3845C29.5309 27.3845 28.227 27.3845 26.9195 27.3845C26.669 27.3845 26.5795 27.4428 26.5401 27.7028C26.3254 29.1021 26.082 30.5014 25.847 31.9007C25.8041 32.1525 25.8029 32.4079 25.3818 32.2785C25.1432 32.2038 25.1277 32.1059 25.1599 31.9217C25.4358 30.3008 25.7106 28.6792 25.9842 27.0569C26.5234 23.8401 27.0606 20.6233 27.5959 17.4065C28.0882 14.4525 28.5817 11.5012 29.0763 8.55262C29.1109 8.34856 29.1897 8.26227 29.4116 8.26344C30.385 8.27277 31.3589 8.27277 32.3331 8.26344C32.5813 8.26344 32.6385 8.36022 32.6743 8.58294C33.569 14.1085 34.4725 19.6349 35.3847 25.162C35.7426 27.3775 36.1231 29.5814 36.4786 31.7934C36.5109 31.994 36.7101 32.3065 36.2281 32.3554C35.9526 32.3834 35.8953 32.3263 35.8559 32.0709C35.6412 30.6716 35.3907 29.2724 35.1807 27.8731C35.1246 27.5 35.0053 27.3635 34.5914 27.374C33.3424 27.4055 32.0921 27.3845 30.8431 27.3845ZM30.83 26.7467C32.0659 26.7467 33.3018 26.7327 34.5365 26.7548C34.9051 26.7618 35.003 26.6382 34.9171 26.3176C34.898 26.2488 34.8932 26.1776 34.8813 26.1077C34.428 23.3503 33.975 20.593 33.5225 17.8356C33.0501 14.9524 32.5809 12.0687 32.1148 9.18463C32.0778 8.95958 31.9824 8.87912 31.7462 8.88612C31.2082 8.90361 30.6725 8.9141 30.1333 8.88612C29.785 8.86629 29.6621 8.98173 29.612 9.31406C29.4163 10.6189 29.1944 11.919 28.9761 13.2204C28.2365 17.6118 27.4945 22.0039 26.7501 26.3969C26.7012 26.686 26.7883 26.7618 27.0805 26.7583C28.3307 26.7385 29.581 26.7467 30.83 26.7467Z" fill="#ED7424"/>
<path d="M29.804 4.85486C30.1684 4.85735 30.5276 4.93984 30.855 5.09624C31.1079 5.20118 31.3573 5.31896 31.6161 5.40758C32.2603 5.6268 32.6254 5.54284 33.0274 5.00995C33.3077 4.63681 33.4736 4.98663 33.6692 5.06126C33.94 5.1662 33.773 5.33178 33.6776 5.46355C33.4467 5.79514 33.1111 6.04373 32.722 6.17133C32.333 6.29893 31.9119 6.29853 31.5231 6.17018C31.1521 6.05358 30.8002 5.87867 30.4399 5.73174C29.7408 5.44373 29.3662 5.51136 28.926 6.10955C28.6314 6.51067 28.456 6.14336 28.2568 6.05707C27.9394 5.91831 28.2031 5.7504 28.2938 5.63146C28.6671 5.13938 29.1431 4.82105 29.804 4.85486Z" fill="#ED7424"/>
<path d="M46.3458 20.0917C46.3458 17.4494 46.3159 14.8071 46.3553 12.1624C46.3635 11.2087 46.6928 10.2841 47.2922 9.53154C47.8916 8.77894 48.7278 8.24017 49.6717 7.99844C50.6838 7.71328 51.7565 7.70441 52.7734 7.97278C54.6821 8.48702 55.5924 9.84664 55.9467 11.6517C56.0101 11.9866 56.0409 12.3267 56.0385 12.6673C56.0385 17.5835 56.0385 22.4988 56.0385 27.4134C56.0385 28.4861 55.893 29.5379 55.4421 30.5267C54.7621 32.0065 53.5703 32.7539 51.9252 32.832C51.0824 32.8901 50.2359 32.7932 49.4296 32.5464C47.5339 31.926 46.5259 30.5815 46.2825 28.689C46.0559 26.9213 46.2372 25.1419 46.2193 23.3683C46.2086 22.2745 46.2193 21.1808 46.2193 20.0882L46.3458 20.0917ZM55.4122 20.4916C55.4122 19.2416 55.4254 17.9916 55.4122 16.7416C55.3908 15.1662 55.5244 13.585 55.3395 12.0167C55.1581 10.4868 54.4853 9.25195 52.9058 8.67592C52.3261 8.46369 51.7188 8.42871 51.1045 8.44271C48.6255 8.48702 46.9959 10.0857 46.9721 12.5099C46.9387 15.9615 46.8933 19.4118 46.885 22.8634C46.885 24.7081 46.7657 26.554 46.885 28.3987C46.9971 30.1244 48.0099 31.4304 49.6109 31.947C50.082 32.0925 50.5696 32.181 51.0627 32.2105C53.0514 32.3575 54.5139 31.6368 55.1068 29.5834C55.3454 28.7403 55.4063 27.8774 55.4122 27.0181C55.4158 24.8375 55.4063 22.664 55.4075 20.4916H55.4122Z" fill="#F8A611"/>
<path d="M30.8294 26.7457C29.5804 26.7457 28.3302 26.7375 27.08 26.7457C26.7877 26.7457 26.7006 26.6734 26.7495 26.3842C27.4963 21.9936 28.2383 17.6015 28.9756 13.2077C29.1939 11.9064 29.4158 10.6063 29.6114 9.30143C29.6615 8.9691 29.7844 8.85366 30.1327 8.87349C30.6684 8.9038 31.2064 8.89331 31.7456 8.87349C31.9842 8.86649 32.0773 8.94695 32.1142 9.172C32.5795 12.0553 33.0487 14.9389 33.5219 17.823C33.9729 20.5811 34.4258 23.3385 34.8807 26.095C34.8926 26.165 34.8974 26.2361 34.9165 26.3049C35.0024 26.6291 34.9046 26.7492 34.5359 26.7422C33.3 26.7317 32.0653 26.7457 30.8294 26.7457ZM30.7805 11.6557H30.6755C30.635 11.9064 30.5932 12.1571 30.5562 12.409C30.1315 15.1819 29.7072 17.9555 29.2834 20.73C29.0627 22.1724 28.8527 23.6172 28.6225 25.0584C28.5759 25.3499 28.6594 25.4257 28.9517 25.4222C30.1268 25.4094 31.3042 25.4071 32.4793 25.4222C32.7906 25.4222 32.8897 25.3418 32.8372 25.0398C32.7298 24.4113 32.6427 23.7792 32.5461 23.1484C32.0617 19.9969 31.5778 16.8455 31.0943 13.694L30.7805 11.6557Z" fill="white"/>
<path d="M55.4068 20.4923C55.4068 22.6647 55.4152 24.8382 55.4068 27.0118C55.4068 27.8758 55.346 28.7387 55.1014 29.5771C54.505 31.6305 53.046 32.3512 51.0573 32.2042C50.5642 32.1748 50.0766 32.0863 49.6055 31.9407C47.9998 31.4265 46.9869 30.1228 46.8748 28.3947C46.7555 26.55 46.8748 24.7041 46.8748 22.8594C46.8831 19.4079 46.9285 15.9575 46.9619 12.506C46.9857 10.0817 48.6153 8.48306 51.0943 8.43875C51.7087 8.42709 52.3159 8.46207 52.8957 8.67196C54.4751 9.248 55.148 10.4829 55.3293 12.0127C55.5142 13.5811 55.3806 15.1611 55.4021 16.7376C55.42 17.9923 55.4068 19.2423 55.4068 20.4923ZM53.417 20.3023C53.417 17.8022 53.417 15.3018 53.417 12.801C53.4174 12.4746 53.3858 12.149 53.3227 11.8285C53.102 10.7172 52.3863 10.1295 51.1861 10.0876C50.017 10.0479 49.2524 10.5773 48.947 11.6443C48.8348 12.0706 48.7834 12.5101 48.7943 12.9502C48.7943 17.8656 48.7943 22.7813 48.7943 27.6974C48.7947 28.0521 48.8246 28.4062 48.8837 28.7562C49.0758 29.8838 49.8178 30.517 50.9702 30.5403C52.3028 30.5671 53.0829 30.0132 53.318 28.86C53.3868 28.526 53.4212 28.1862 53.4206 27.8455C53.415 25.3315 53.4138 22.8171 53.417 20.3023Z" fill="white"/>
<path d="M30.782 11.657L31.0969 13.6953C31.5813 16.846 32.0652 19.9974 32.5487 23.1497C32.6454 23.7805 32.7325 24.4125 32.8398 25.041C32.8923 25.343 32.7933 25.4282 32.4819 25.4235C31.3069 25.4072 30.1294 25.4095 28.9544 25.4235C28.6621 25.4235 28.5786 25.3512 28.6251 25.0597C28.8553 23.6184 29.0653 22.1737 29.286 20.7313C29.7083 17.9568 30.1326 15.1832 30.5589 12.4103C30.5971 12.1584 30.6388 11.9077 30.6782 11.657H30.782Z" fill="#ED7424"/>
<path d="M53.4185 20.302C53.4185 22.8168 53.4185 25.3316 53.4185 27.8464C53.4191 28.1871 53.3847 28.527 53.3159 28.8609C53.0773 30.0141 52.3007 30.568 50.9682 30.5412C49.8158 30.5179 49.0737 29.8847 48.8817 28.7571C48.8226 28.4072 48.7926 28.0531 48.7922 27.6984C48.7922 22.7822 48.7922 17.8665 48.7922 12.9512C48.7813 12.5111 48.8327 12.0716 48.9449 11.6452C49.2503 10.5782 50.0186 10.0489 51.1841 10.0885C52.377 10.1293 53.1047 10.717 53.323 11.8283C53.3861 12.1487 53.4177 12.4744 53.4173 12.8008C53.4149 15.3023 53.4153 17.8028 53.4185 20.302Z" fill="#F8A611"/>
</g>
<defs>
<clipPath id="clip0_8220_40346">
<rect width="61.25" height="40.425" fill="white" transform="translate(0.375 0.173584)"/>
</clipPath>
</defs>
</svg>
