<svg width="18" height="18" viewBox="0 0 18 18" fill="none" xmlns="http://www.w3.org/2000/svg">
<path d="M9.00003 0C6.61314 0 4.32374 0.948266 2.63606 2.63606C0.948266 4.32399 0 6.61314 0 9.00003C0 11.3869 0.948266 13.6763 2.63606 15.364C4.32399 17.0518 6.61314 18.0001 9.00003 18.0001C11.3869 18.0001 13.6763 17.0518 15.364 15.364C17.0518 13.6761 18.0001 11.3869 18.0001 9.00003C18.0001 6.61314 17.0518 4.32374 15.364 2.63606C13.6761 0.948266 11.3869 0 9.00003 0ZM9.00003 16.3638C7.04707 16.3638 5.17407 15.588 3.79321 14.2071C2.41224 12.8261 1.63642 10.9531 1.63642 9.00024C1.63642 7.04735 2.41224 5.17428 3.79321 3.79342C5.17418 2.41245 7.04714 1.63663 9.00003 1.63663C10.9529 1.63663 12.826 2.41245 14.2068 3.79342C15.5878 5.17439 16.3636 7.04735 16.3636 9.00024C16.3636 10.9531 15.5878 12.8262 14.2068 14.2071C12.8259 15.588 10.9529 16.3638 9.00003 16.3638Z" fill="#00DEA3"/>
<path d="M12.6615 6.24303C12.2511 5.8911 11.6582 5.93498 11.3391 6.2869L8.05555 9.76162L6.64188 8.39814C6.27701 8.04622 5.68402 8.04622 5.27366 8.39814C4.90878 8.75007 4.90878 9.322 5.27366 9.71779L7.41676 11.7413C7.78164 12.0932 8.42007 12.0932 8.78499 11.6974L12.7525 7.47463C13.1174 7.16689 13.0719 6.55109 12.6615 6.24303H12.6615Z" fill="#00DEA3"/>
</svg>