<svg width="18" height="18" viewBox="0 0 18 18" fill="none" xmlns="http://www.w3.org/2000/svg">
<path d="M9.00003 0C6.61314 0 4.32374 0.948266 2.63606 2.63606C0.948266 4.32399 0 6.61314 0 9.00003C0 11.3869 0.948266 13.6763 2.63606 15.364C4.32399 17.0518 6.61314 18.0001 9.00003 18.0001C11.3869 18.0001 13.6763 17.0518 15.364 15.364C17.0518 13.6761 18.0001 11.3869 18.0001 9.00003C18.0001 6.61314 17.0518 4.32374 15.364 2.63606C13.6761 0.948266 11.3869 0 9.00003 0ZM9.00003 16.3638C7.04707 16.3638 5.17407 15.588 3.79321 14.2071C2.41224 12.8261 1.63642 10.9531 1.63642 9.00024C1.63642 7.04735 2.41224 5.17428 3.79321 3.79342C5.17418 2.41245 7.04714 1.63663 9.00003 1.63663C10.9529 1.63663 12.826 2.41245 14.2068 3.79342C15.5878 5.17439 16.3636 7.04735 16.3636 9.00024C16.3636 10.9531 15.5878 12.8262 14.2068 14.2071C12.8259 15.588 10.9529 16.3638 9.00003 16.3638Z" fill="#E52222"/>
<path d="M12.7081 5.40434C12.4896 5.18584 12.1367 5.18584 11.9182 5.40434L9.17856 8.13831L6.43893 5.39873C6.22043 5.18024 5.86748 5.18024 5.64898 5.39873C5.43048 5.61723 5.43048 5.97018 5.64898 6.18867L8.3886 8.92825L5.64898 11.6678C5.43048 11.8863 5.43048 12.2393 5.64898 12.4578C5.86748 12.6763 6.22043 12.6763 6.43893 12.4578L9.17856 9.71819L11.9182 12.4578C12.1367 12.6763 12.4896 12.6763 12.7081 12.4578C12.9266 12.2393 12.9266 11.8863 12.7081 11.6678L9.96851 8.92825L12.7081 6.18867C12.921 5.97578 12.921 5.61723 12.7081 5.40434Z" fill="#E52222"/>
</svg>
