<svg width="10" height="11" viewBox="0 0 10 11" fill="none" xmlns="http://www.w3.org/2000/svg">
    <g id="Group 1000003441">
    <g id="Group 1000002497">
    <g id="Group">
    <path id="Vector" d="M4.61952 11C4.52556 11 4.43205 10.9642 4.3601 10.8927L1.35297 7.88562C0.480304 7.01295 0 5.85293 0 4.61906C0 3.38518 0.480339 2.22523 1.35297 1.35297C2.22564 0.480304 3.38518 0 4.61953 0C5.8534 0 7.01336 0.480339 7.88609 1.35297C8.75881 2.2256 9.23906 3.38518 9.23906 4.61906C9.23906 5.85293 8.75872 7.01336 7.88609 7.88562L4.87895 10.8927C4.80745 10.9642 4.71346 11 4.61952 11ZM4.61952 0.732871C3.58139 0.732871 2.60561 1.13712 1.87134 1.87137C1.13755 2.60561 0.733298 3.58091 0.733298 4.61908C0.733298 5.65721 1.13755 6.63299 1.87134 7.36726L4.61952 10.115L7.36769 7.36726C8.10149 6.63301 8.50573 5.65724 8.50573 4.61908C8.50573 3.58095 8.10149 2.60517 7.36769 1.87137C6.63345 1.13712 5.65768 0.732871 4.61952 0.732871Z" fill="#363852"/>
    <path id="Vector_2" d="M4.61931 7.0448C3.9978 7.0448 3.37675 6.8083 2.90378 6.33529C2.44545 5.87697 2.19336 5.26783 2.19336 4.61976C2.19336 3.97169 2.4459 3.36254 2.90378 2.90423C3.3621 2.44591 3.97124 2.19336 4.61931 2.19336C5.26737 2.19336 5.87653 2.4459 6.33484 2.90423C6.79314 3.36257 7.04525 3.9717 7.04525 4.61976C7.04525 5.26784 6.79317 5.87699 6.33484 6.33529C5.86184 6.80829 5.24034 7.0448 4.61931 7.0448ZM4.61931 2.92616C4.16693 2.92616 3.74205 3.10216 3.42216 3.42209C3.10223 3.74201 2.92623 4.16688 2.92623 4.61924C2.92623 5.07161 3.10223 5.49649 3.42216 5.81639C4.08215 6.47639 5.15599 6.47639 5.81646 5.81639C6.13638 5.49647 6.31238 5.07159 6.31238 4.61924C6.31238 4.16686 6.13638 3.74198 5.81646 3.42209C5.49654 3.10216 5.07166 2.92616 4.61931 2.92616Z" fill="#363852"/>
    </g>
    </g>
    </g>
    </svg>