<svg width="13" height="9" viewBox="0 0 13 9" fill="none" xmlns="http://www.w3.org/2000/svg">
<path d="M11.1523 0.166648C10.9295 0.172723 10.7178 0.265856 10.5619 0.426373C10.3395 0.650533 8.79042 2.25527 7.2015 3.90019C5.86101 5.28792 4.85194 6.32838 4.3833 6.81128L1.3826 4.50622C1.29275 4.43691 1.19022 4.38615 1.08088 4.35686C0.971535 4.32756 0.857534 4.32031 0.745406 4.3355C0.633277 4.35069 0.525225 4.38804 0.427439 4.4454C0.329654 4.50276 0.244058 4.579 0.175555 4.66976C0.107053 4.76052 0.0569905 4.86402 0.028237 4.97432C-0.000516634 5.08461 -0.0073964 5.19955 0.00799182 5.31253C0.02338 5.42551 0.0607338 5.53432 0.117913 5.63273C0.175092 5.73113 0.250972 5.8172 0.341206 5.886L3.9485 8.65642C4.11372 8.78332 4.31897 8.84557 4.52623 8.83164C4.73349 8.81771 4.92872 8.72855 5.07577 8.58066C5.29816 8.35649 6.84721 6.75175 8.43614 5.10682C10.0251 3.4619 11.6539 1.77678 11.775 1.65464C11.8996 1.53322 11.9849 1.37664 12.0196 1.20547C12.0543 1.0343 12.0369 0.85655 11.9695 0.695577C11.9021 0.534604 11.788 0.39794 11.6422 0.303538C11.4963 0.209136 11.3256 0.161418 11.1523 0.166648Z" fill="#0CAEBB"/>
</svg>
