<svg width="10" height="10" viewBox="0 0 10 10" fill="none" xmlns="http://www.w3.org/2000/svg">
<path fill-rule="evenodd" clip-rule="evenodd" d="M0.94553 2.64911H0.357143C0.160263 2.64911 0 2.48885 0 2.29152C0 2.09464 0.160263 1.93438 0.357143 1.93438H2.70845V0.892858C2.70845 0.400001 3.10801 0 3.60131 0H6.39868C6.89198 0 7.29153 0.400001 7.29153 0.892858V1.93438H9.6433C9.84018 1.93438 10 2.09464 10 2.29152C10 2.48885 9.84018 2.64911 9.6433 2.64911H9.05447L8.3259 9.2058C8.27545 9.65803 7.89376 10 7.4384 10H2.56161C2.10625 10 1.72456 9.65803 1.67411 9.2058L0.94553 2.64911ZM3.06564 2.64911H1.66382L2.38391 9.12683C2.39417 9.21746 2.47051 9.28576 2.56159 9.28576H7.43838C7.52945 9.28576 7.60579 9.21745 7.61606 9.12683L8.33615 2.64911H3.06564ZM6.57764 1.93438V0.892858C6.57764 0.794197 6.49773 0.714287 6.39862 0.714287H3.60125C3.50215 0.714287 3.42224 0.794197 3.42224 0.892858V1.93438H6.57764Z" fill="#868897"/>
</svg>
