<svg width="11" height="10" viewBox="0 0 11 10" fill="none" xmlns="http://www.w3.org/2000/svg">
<path d="M8.15513 0.0984626C8.02086 -0.0328209 7.7831 -0.0328209 7.64883 0.0984626L5.93762 1.77164L0.718746 6.87385C0.693572 6.89846 0.676088 6.92445 0.660005 6.95248C0.656508 6.95795 0.653012 6.96479 0.650914 6.97026C0.636928 7.00034 0.62574 7.02975 0.620143 7.05983C0.620143 7.06188 0.618045 7.06188 0.618045 7.06325L0.188677 9.59247C0.169095 9.70461 0.206858 9.81812 0.288677 9.89675C0.356511 9.96308 0.44812 10 0.541135 10C0.560717 10 0.580297 9.99795 0.599876 9.99453L3.18658 9.5747C3.18868 9.5747 3.18868 9.5747 3.19008 9.57265C3.22224 9.56718 3.25301 9.55692 3.28308 9.54256C3.28868 9.53915 3.29567 9.53709 3.30127 9.53368C3.32994 9.51795 3.35651 9.50017 3.38169 9.47624L10.3111 2.70079C10.451 2.56403 10.451 2.3418 10.3111 2.20574L8.15513 0.0984626ZM3.12852 8.73517L1.47814 7.12146L6.19003 2.51429L7.8404 4.12799L3.12852 8.73517ZM1.21101 7.85105L2.38165 8.99569L0.976038 9.22475L1.21101 7.85105ZM8.34543 3.63212L6.69505 2.01842L7.90136 0.838919L9.55032 2.45262L8.34543 3.63212Z" fill="#868897"/>
</svg>
