<svg width="15" height="15" viewBox="0 0 15 15" fill="none" xmlns="http://www.w3.org/2000/svg">
<path d="M7.33337 9.54864C7.15917 9.72359 7.15917 10.007 7.33337 10.1814C7.42105 10.2694 7.53429 10.3126 7.64867 10.3126C7.76306 10.3126 7.87746 10.2694 7.96397 10.1814L10.696 7.4376C10.8702 7.26265 10.8702 6.97924 10.696 6.80487L7.96397 4.0587C7.78977 3.88375 7.50757 3.88375 7.33395 4.0587C7.15975 4.23366 7.15975 4.51706 7.33395 4.69143L9.30473 6.67294H2.44595C2.19916 6.67294 2 6.87296 2 7.12081C2 7.36866 2.19916 7.56867 2.44595 7.56867H9.30473L7.33337 9.54864Z" fill="#4A4C63"/>
<path d="M4.22976 5.3294C4.47654 5.3294 4.6757 5.12938 4.6757 4.88153V3.58866C4.6757 2.65561 5.4323 1.89573 6.36138 1.89573H10.4225C11.3515 1.89573 12.1081 2.65558 12.1081 3.58866V10.653C12.1081 11.5861 11.3515 12.3459 10.4225 12.3459H6.36138C5.43232 12.3459 4.6757 11.5861 4.6757 10.653V9.36013C4.6757 9.11228 4.47654 8.91227 4.22976 8.91227C3.98297 8.91227 3.78381 9.11228 3.78381 9.36013V10.653C3.78381 12.08 4.94048 13.2417 6.36138 13.2417H10.4225C11.8433 13.2417 13 12.08 13 10.653V3.58866C13 2.16167 11.8434 1 10.4225 1H6.36138C4.94051 1 3.78381 2.16164 3.78381 3.58866V4.88153C3.78381 5.12938 3.98297 5.3294 4.22976 5.3294Z" fill="#4A4C63"/>
</svg>
