<svg width="35" height="35" viewBox="0 0 35 35" fill="none" xmlns="http://www.w3.org/2000/svg">
    <path d="M22.1144 14.8126C22.1154 13.701 21.7619 12.6179 21.1052 11.7205C20.4485 10.823 19.5227 10.1577 18.4621 9.82108C18.2447 9.75948 18.0531 9.62936 17.9159 9.45012C17.7786 9.27089 17.703 9.05214 17.7004 8.82649C17.7074 8.73034 17.6945 8.63378 17.6625 8.54283C17.6305 8.45188 17.58 8.3685 17.5143 8.2979C17.4486 8.2273 17.369 8.17098 17.2805 8.13248C17.192 8.09397 17.0965 8.0741 17 8.0741C16.9035 8.0741 16.808 8.09397 16.7195 8.13248C16.631 8.17098 16.5514 8.2273 16.4857 8.2979C16.42 8.3685 16.3696 8.45188 16.3375 8.54283C16.3055 8.63378 16.2926 8.73034 16.2996 8.82649C16.2986 9.04942 16.2258 9.26611 16.0919 9.44454C15.9581 9.62296 15.7704 9.75368 15.5565 9.81737C14.4943 10.1551 13.5676 10.8222 12.9108 11.7218C12.254 12.6214 11.9014 13.7066 11.9042 14.82C11.8901 15.0126 11.8371 15.2004 11.7483 15.372C11.6595 15.5436 11.5369 15.6954 11.3877 15.8183C11.2933 15.9204 11.2295 16.0469 11.2035 16.1834C11.1775 16.3199 11.1904 16.461 11.2408 16.5905C11.2911 16.72 11.3768 16.8329 11.4882 16.9162C11.5996 16.9994 11.7321 17.0498 11.8707 17.0616H22.1479C22.2865 17.0498 22.419 16.9994 22.5304 16.9162C22.6418 16.8329 22.7275 16.72 22.7778 16.5905C22.8282 16.461 22.8411 16.3199 22.8151 16.1834C22.7891 16.0469 22.7253 15.9204 22.6309 15.8183C22.4802 15.6952 22.3565 15.5423 22.2677 15.3692C22.1788 15.1962 22.1266 15.0067 22.1144 14.8126ZM19.9185 15.6031H14.0815C13.8712 15.6031 13.6695 15.5199 13.5205 15.3718C13.3715 15.2236 13.2873 15.0226 13.2863 14.8126C13.2863 13.8283 13.6778 12.8844 14.3746 12.1884C15.0714 11.4924 16.0164 11.1014 17.0019 11.1014C17.9873 11.1014 18.9323 11.4924 19.6291 12.1884C20.3259 12.8844 20.7174 13.8283 20.7174 14.8126C20.7169 14.9169 20.6959 15.0201 20.6554 15.1162C20.615 15.2124 20.5561 15.2997 20.4819 15.3731C20.4077 15.4465 20.3198 15.5046 20.2231 15.544C20.1265 15.5835 20.023 15.6036 19.9185 15.6031Z" fill="#0CAEBB"/>
    <path d="M24.3549 3H9.64512C8.66754 3.01272 7.7349 3.41208 7.05164 4.11054C6.36839 4.80899 5.99027 5.74954 6.00019 6.726V27.7571C5.99422 28.731 6.37409 29.6678 7.05692 30.363C7.73975 31.0583 8.67014 31.4556 9.64512 31.4683H24.3549C25.3299 31.4556 26.2603 31.0583 26.9431 30.363C27.6259 29.6678 28.0058 28.731 27.9998 27.7571V6.726C28.0097 5.74954 27.6316 4.80899 26.9484 4.11054C26.2651 3.41208 25.3325 3.01272 24.3549 3ZM26.5842 27.7571C26.5892 28.354 26.3575 28.9286 25.9399 29.3555C25.5222 29.7824 24.9524 30.027 24.3549 30.0358H9.64512C9.04758 30.027 8.4778 29.7824 8.06013 29.3555C7.64246 28.9286 7.41083 28.354 7.41581 27.7571V6.726C7.41083 6.12913 7.64246 5.55452 8.06013 5.12761C8.4778 4.7007 9.04758 4.45615 9.64512 4.44735H24.3549C24.9524 4.45615 25.5222 4.7007 25.9399 5.12761C26.3575 5.55452 26.5892 6.12913 26.5842 6.726V27.7571Z" fill="#0CAEBB"/>
    <path d="M22.2704 20.6317H12.4615C12.3077 20.6317 12.1603 20.6927 12.0516 20.8013C11.9429 20.9099 11.8818 21.0571 11.8818 21.2107C11.8818 21.3642 11.9429 21.5115 12.0516 21.62C12.1603 21.7286 12.3077 21.7896 12.4615 21.7896H22.2704C22.3466 21.7896 22.4219 21.7746 22.4923 21.7455C22.5626 21.7164 22.6265 21.6738 22.6803 21.62C22.7341 21.5663 22.7768 21.5024 22.8059 21.4322C22.8351 21.362 22.8501 21.2867 22.8501 21.2107C22.8501 21.1346 22.8351 21.0593 22.8059 20.9891C22.7768 20.9189 22.7341 20.855 22.6803 20.8013C22.6265 20.7475 22.5626 20.7049 22.4923 20.6758C22.4219 20.6467 22.3466 20.6317 22.2704 20.6317Z" fill="#0CAEBB"/>
    <path d="M22.2704 24.5507H12.4615C12.3077 24.5507 12.1603 24.6117 12.0516 24.7202C11.9429 24.8288 11.8818 24.9761 11.8818 25.1296C11.8818 25.2831 11.9429 25.4304 12.0516 25.539C12.1603 25.6475 12.3077 25.7085 12.4615 25.7085H22.2704C22.4242 25.7085 22.5716 25.6475 22.6803 25.539C22.789 25.4304 22.8501 25.2831 22.8501 25.1296C22.8501 24.9761 22.789 24.8288 22.6803 24.7202C22.5716 24.6117 22.4242 24.5507 22.2704 24.5507Z" fill="#0CAEBB"/>
    </svg>