<svg width="17" height="12" viewBox="0 0 17 12" fill="none" xmlns="http://www.w3.org/2000/svg">
<path d="M13.2739 1.47783H2.94975C2.54416 1.47783 2.21231 1.14531 2.21231 0.738913C2.21231 0.332511 2.54416 0 2.94975 0H13.2739C13.6794 0 14.0113 0.332511 14.0113 0.738913C14.0113 1.14531 13.6794 1.47783 13.2739 1.47783ZM16.2236 5.99997C16.2236 5.59357 15.8918 5.26106 15.4862 5.26106H0.737437C0.331846 5.26106 0 5.59357 0 5.99997C0 6.40637 0.331846 6.73889 0.737437 6.73889H15.4862C15.8918 6.73889 16.2236 6.40637 16.2236 5.99997ZM14.0113 11.261C14.0113 10.8546 13.6794 10.5221 13.2739 10.5221H2.94975C2.54416 10.5221 2.21231 10.8546 2.21231 11.261C2.21231 11.6674 2.54416 11.9999 2.94975 11.9999H13.2739C13.6794 11.9999 14.0113 11.6674 14.0113 11.261Z" fill="#363852"/>
</svg>
