<svg width="170" height="157" viewBox="0 0 170 157" fill="none" xmlns="http://www.w3.org/2000/svg">
    <path d="M26.9596 52.8594C30.5385 62.9994 37.7216 69.2698 38.1727 80.0056C38.4814 87.3671 34.1827 94.1958 33.6365 101.541C32.8926 111.613 39.8672 121.394 49.2075 125.224C58.5478 129.054 69.618 127.332 78.2149 122.037C81.0361 120.302 83.7377 118.161 86.9788 117.484C91.623 116.523 96.2388 118.75 100.778 120.128C106.401 121.791 112.322 122.194 118.118 121.31C123.914 120.426 129.442 118.276 134.31 115.013C134.31 115.013 157.402 102.864 156.993 71.9872C156.872 63.0108 154.489 53.8482 148.998 46.7674C143.506 39.6866 131.047 34.5029 122.095 35.302C112.59 36.1571 103.787 42.884 94.3706 41.3402C88.9145 40.4453 84.3323 36.9094 79.6904 33.9009C73.1669 29.7056 66.2975 25.9644 58.7951 23.9875C49.9544 21.6846 39.7872 22.4611 32.0525 30.3382C29.3291 33.0971 27.413 36.5481 26.5113 40.3179C25.7253 43.7171 25.3325 48.2476 26.9596 52.8594Z" fill="white"/>
    <path fill-rule="evenodd" clip-rule="evenodd" d="M102.488 62.8212C105.778 56.2732 112.895 51.7371 121.134 51.7371C130.308 51.7371 138.088 57.3615 140.746 65.1197C146.68 65.4596 151.447 69.9103 151.387 75.7114C151.382 76.2586 90.3562 76.0864 90.3562 75.7114C90.322 66.935 93.542 62.7419 100.963 62.7419C101.478 62.7419 101.986 62.7694 102.487 62.8227L102.488 62.8212Z" fill="#E7F7F8"/>
    <path fill-rule="evenodd" clip-rule="evenodd" d="M59.3012 73.6521C57.019 69.1587 52.0839 66.0448 46.3701 66.0448C40.0083 66.0448 34.6112 69.9036 32.7681 75.2294C28.6526 75.4621 25.3468 78.5171 25.3876 82.4983C25.3908 82.873 67.7151 82.7551 67.7151 82.4983C67.7396 76.4759 65.5047 73.5977 60.3591 73.5977C60.0016 73.5977 59.6489 73.6158 59.3028 73.6521H59.3012Z" fill="#E7F7F8"/>
    <g style="mix-blend-mode:multiply">
    <path d="M127.387 124.737C127.387 125.841 109.478 126.737 87.3881 126.737C65.2983 126.737 47.3872 125.841 47.3872 124.737C47.3872 123.633 65.2964 122.737 87.3881 122.737C109.48 122.737 127.387 123.633 127.387 124.737Z" fill="#0CAEBB" fill-opacity="0.3"/>
    </g>
    <path d="M29.6559 89.2063C32.1288 89.4533 34.6222 89.0204 36.866 87.9543C38.1157 87.3628 43.1253 91.5552 44.1365 90.6274C45.1477 89.6996 42.1572 83.6447 42.8539 82.4444C44.3315 79.8909 44.9409 76.9288 44.5911 74.0011C44.2413 71.0734 42.951 68.3373 40.9132 66.2018C38.8754 64.0664 36.1995 62.6463 33.2856 62.154C30.3717 61.6617 27.3764 62.1235 24.7474 63.4705C22.1184 64.8174 19.9971 66.9771 18.7005 69.6267C17.4039 72.2762 17.0018 75.2733 17.5542 78.1698C18.1067 81.0663 19.584 83.7066 21.7653 85.6959C23.9467 87.6852 26.7148 88.9168 29.6559 89.2063Z" fill="white"/>
    <path d="M43.7235 91.0395C42.9145 91.0395 41.6699 90.3497 40.2818 89.5668C39.0891 88.8994 37.4555 87.9871 36.9974 88.2078C34.7053 89.2931 32.1601 89.7349 29.6353 89.4857C26.6359 89.1881 23.8136 87.93 21.5902 85.8997C19.3668 83.8693 17.8617 81.1756 17.2999 78.2211C16.738 75.2667 17.1497 72.2102 18.4732 69.5085C19.7968 66.8068 21.9611 64.6049 24.6429 63.232C27.3246 61.8591 30.3797 61.3889 33.3514 61.8917C36.3232 62.3944 39.0521 63.8431 41.1303 66.0213C43.2084 68.1994 44.5242 70.99 44.881 73.976C45.2379 76.962 44.6165 79.983 43.1098 82.5875C42.8419 83.0514 43.3812 84.8449 43.8151 86.2867C44.5532 88.739 44.956 90.2687 44.3337 90.8378C44.1638 90.9808 43.9453 91.053 43.7235 91.0395ZM37.1547 87.6042C37.9499 87.6042 39.1772 88.294 40.5601 89.0649C41.758 89.7358 43.5679 90.7498 43.9378 90.4083C44.3354 90.0427 43.7097 87.9629 43.2464 86.4419C42.5964 84.281 42.2265 82.922 42.593 82.2909C44.1925 79.5222 44.7446 76.2734 44.1491 73.1335C43.5537 69.9936 41.8502 67.1705 39.3474 65.1761C36.8447 63.1817 33.7085 62.1481 30.5074 62.2627C27.3064 62.3772 24.2524 63.6323 21.8993 65.8005C19.5463 67.9686 18.0498 70.9062 17.6814 74.0806C17.313 77.255 18.097 80.456 19.8912 83.1032C21.6854 85.7504 24.3711 87.6686 27.4612 88.5098C30.5514 89.3511 33.8414 89.0598 36.7347 87.6887C36.8677 87.6292 37.0125 87.6003 37.1582 87.6042H37.1547Z" fill="#363852"/>
    <path d="M77.7874 37.9129C77.7932 41.5248 76.8074 45.0693 74.9369 48.1619C73.8997 49.8865 79.2775 57.7246 77.7822 59.0525C76.287 60.3804 67.9291 55.1964 66.0812 56.0311C62.1616 57.8037 57.7721 58.2629 53.5691 57.34C49.3661 56.4171 45.5755 54.1616 42.7641 50.9109C39.9527 47.6602 38.2716 43.5889 37.9721 39.3058C37.6727 35.0228 38.771 30.758 41.1028 27.1494C43.4347 23.5408 46.8747 20.7822 50.9086 19.2861C54.9424 17.79 59.3533 17.6368 63.4817 18.8495C67.6101 20.0621 71.2341 22.5753 73.8118 26.0135C76.3895 29.4516 77.7824 33.6297 77.7822 37.9232L77.7874 37.9129Z" fill="white"/>
    <path d="M77.0112 59.5526C75.7735 59.5526 73.7908 58.7386 71.5799 57.8281C69.4156 56.9416 66.9627 55.931 66.2004 56.276C61.7969 58.2649 56.8247 58.6137 52.1855 57.2591C47.5463 55.9046 43.5472 52.9363 40.9133 48.8926C38.2795 44.8489 37.1852 39.9975 37.8291 35.218C38.4729 30.4385 40.8122 26.0474 44.4227 22.8409C48.0332 19.6344 52.6759 17.8248 57.509 17.7402C62.342 17.6557 67.0455 19.3017 70.7664 22.38C74.4874 25.4582 76.9796 29.7648 77.791 34.5188C78.6024 39.2729 77.6793 44.1596 75.1892 48.293C74.7674 48.9932 75.7873 51.3144 76.6862 53.3615C77.8755 56.0949 78.9126 58.4351 77.9792 59.2612C77.7041 59.4751 77.3589 59.579 77.0112 59.5526ZM66.6032 55.6482C67.7614 55.6482 69.6594 56.426 71.7994 57.3021C74.0898 58.2402 76.942 59.406 77.5903 58.8335C78.2091 58.2833 77.0717 55.6896 76.1538 53.6046C75.0596 51.1144 74.114 48.9638 74.6914 48.0084C77.1029 43.9968 77.994 39.2559 77.203 34.6452C76.412 30.0344 73.9914 25.859 70.3799 22.8758C66.7684 19.8925 62.205 18.2989 57.517 18.3838C52.829 18.4687 48.3266 20.2265 44.826 23.3385C41.3254 26.4506 39.0583 30.7109 38.4355 35.3472C37.8128 39.9835 38.8757 44.689 41.4316 48.6107C43.9875 52.5324 47.8672 55.4107 52.3674 56.724C56.8676 58.0372 61.6905 57.6984 65.9619 55.7689C66.1663 55.6832 66.3867 55.642 66.6084 55.6482H66.6032Z" fill="#363852"/>
    <path d="M104.944 124.461H66.6256C65.4042 124.458 64.2338 123.972 63.3703 123.11C62.5068 122.248 62.0203 121.081 62.0171 119.862V87.1714C62.0171 84.6432 63.2997 80.9457 64.8641 78.9573L70.2695 72.1056C71.8356 70.1155 75.1926 68.4841 77.7267 68.4841H109.894L104.944 124.461Z" fill="white"/>
    <path d="M104.944 124.749H66.6257C65.3271 124.748 64.0823 124.232 63.1643 123.316C62.2462 122.4 61.7299 121.158 61.7285 119.862V87.1714C61.7285 84.5845 63.0336 80.8198 64.636 78.7797L70.0345 71.928C71.6525 69.8741 75.0993 68.2013 77.7182 68.2013H109.895C109.935 68.2013 109.974 68.2095 110.011 68.2256C110.047 68.2416 110.08 68.265 110.107 68.2944C110.135 68.3238 110.155 68.3587 110.168 68.3968C110.181 68.4348 110.186 68.4752 110.182 68.5151L105.231 124.486C105.224 124.557 105.191 124.624 105.138 124.673C105.085 124.722 105.016 124.749 104.944 124.749ZM77.7182 68.7773C75.2532 68.7773 72.0138 70.3501 70.4874 72.2833L65.0838 79.1349C63.547 81.0871 62.2972 84.6932 62.2972 87.1714V119.862C62.2972 121.006 62.7525 122.102 63.563 122.911C64.3734 123.719 65.4726 124.173 66.6188 124.173H104.679L109.58 68.7773H77.7182Z" fill="#363852"/>
    <path d="M97.1602 119.862C97.1638 121.081 97.6507 122.249 98.5145 123.11C99.3783 123.972 100.549 124.458 101.77 124.461H118.019C119.241 124.458 120.411 123.972 121.275 123.11C122.138 122.248 122.625 121.081 122.628 119.862V87.1714C122.628 84.6432 121.357 80.9388 119.802 78.9418L112.723 69.8534C111.167 67.8563 108.621 67.8563 107.067 69.8534L99.9899 78.9418C98.4341 80.9388 97.1602 84.6432 97.1602 87.1714V119.862Z" fill="#FDE4B8"/>
    <path d="M97.16 72.8006H82.7606C82.6056 72.8066 82.4509 72.7813 82.3059 72.7263C82.1608 72.6712 82.0284 72.5875 81.9166 72.4802C81.8048 72.3729 81.7158 72.2441 81.6551 72.1017C81.5943 71.9592 81.563 71.806 81.563 71.6512C81.563 71.4964 81.5943 71.3432 81.6551 71.2008C81.7158 71.0583 81.8048 70.9296 81.9166 70.8223C82.0284 70.7149 82.1608 70.6312 82.3059 70.5762C82.4509 70.5211 82.6056 70.4958 82.7606 70.5018H97.16C97.315 70.4958 97.4697 70.5211 97.6147 70.5762C97.7597 70.6312 97.8921 70.7149 98.0039 70.8223C98.1158 70.9296 98.2047 71.0583 98.2655 71.2008C98.3263 71.3432 98.3576 71.4964 98.3576 71.6512C98.3576 71.806 98.3263 71.9592 98.2655 72.1017C98.2047 72.2441 98.1158 72.3729 98.0039 72.4802C97.8921 72.5875 97.7597 72.6712 97.6147 72.7263C97.4697 72.7813 97.315 72.8066 97.16 72.8006Z" fill="#F8A611"/>
    <path d="M97.16 73.0887H82.7606C82.5672 73.0953 82.3744 73.0631 82.1938 72.9939C82.0131 72.9246 81.8483 72.8198 81.7091 72.6857C81.5699 72.5516 81.4592 72.3908 81.3836 72.2131C81.308 72.0354 81.269 71.8443 81.269 71.6512C81.269 71.4582 81.308 71.2671 81.3836 71.0893C81.4592 70.9116 81.5699 70.7509 81.7091 70.6168C81.8483 70.4826 82.0131 70.3778 82.1938 70.3086C82.3744 70.2394 82.5672 70.2071 82.7606 70.2138H97.16C97.3534 70.2071 97.5462 70.2394 97.7268 70.3086C97.9075 70.3778 98.0723 70.4826 98.2115 70.6168C98.3507 70.7509 98.4614 70.9116 98.537 71.0893C98.6126 71.2671 98.6515 71.4582 98.6515 71.6512C98.6515 71.8443 98.6126 72.0354 98.537 72.2131C98.4614 72.3908 98.3507 72.5516 98.2115 72.6857C98.0723 72.8198 97.9075 72.9246 97.7268 72.9939C97.5462 73.0631 97.3534 73.0953 97.16 73.0887ZM82.7606 70.7881C82.5314 70.7881 82.3115 70.8789 82.1495 71.0406C81.9874 71.2024 81.8963 71.4217 81.8963 71.6504C81.8963 71.8791 81.9874 72.0984 82.1495 72.2601C82.3115 72.4218 82.5314 72.5126 82.7606 72.5126H97.16C97.3892 72.5126 97.609 72.4218 97.7711 72.2601C97.9332 72.0984 98.0243 71.8791 98.0243 71.6504C98.0243 71.4217 97.9332 71.2024 97.7711 71.0406C97.609 70.8789 97.3892 70.7881 97.16 70.7881H82.7606Z" fill="#363852"/>
    <path d="M52.6533 89.4754L54.8089 122.166C54.8591 122.785 55.1385 123.363 55.5927 123.787C56.0468 124.211 56.6431 124.452 57.2653 124.461H68.6413C69.2633 124.451 69.8594 124.211 70.3135 123.787C70.7675 123.362 71.047 122.785 71.0976 122.166L73.2532 89.4754H52.6533Z" fill="#0CAEBB"/>
    <path d="M62.3967 105.509C62.1507 104.47 61.8599 103.228 62.6961 102.204C61.6159 102.315 60.7651 103.523 60.7651 104.996C60.7651 106.258 61.3879 107.325 62.2446 107.676C62.7636 107.223 62.6432 106.549 62.3967 105.509Z" fill="#FCDBA0"/>
    <path d="M63.7131 102.441C62.7565 103.198 62.9859 104.182 63.2503 105.307C63.4407 106.112 63.6503 106.996 63.2953 107.737C64.24 107.465 64.948 106.343 64.948 104.997C64.9513 103.86 64.4436 102.88 63.7131 102.441Z" fill="#FCDBA0"/>
    <path d="M68.6412 124.749H57.2652C56.5699 124.74 55.9034 124.471 55.396 123.997C54.8886 123.523 54.5769 122.877 54.5219 122.185L52.3646 89.4943C52.3609 89.415 52.3889 89.3375 52.4424 89.2788C52.4697 89.2505 52.5025 89.228 52.5387 89.2126C52.5749 89.1972 52.6139 89.1892 52.6533 89.1891H73.2531C73.2925 89.189 73.3314 89.197 73.3675 89.2125C73.4036 89.2281 73.4362 89.2509 73.4631 89.2795C73.49 89.3082 73.5107 89.342 73.524 89.3789C73.5372 89.4159 73.5427 89.4552 73.5401 89.4943L71.3862 122.185C71.33 122.876 71.0177 123.522 70.5102 123.996C70.0027 124.47 69.3364 124.739 68.6412 124.749ZM52.9609 89.7634L55.0975 122.145C55.1406 122.692 55.3867 123.203 55.7878 123.578C56.1888 123.952 56.7157 124.164 57.2652 124.172H68.6412C69.1906 124.164 69.7173 123.952 70.1185 123.577C70.5196 123.202 70.7664 122.692 70.8106 122.145L72.9437 89.7616L52.9609 89.7634Z" fill="#363852"/>
    <path d="M50.3491 88.1802C50.35 88.4847 50.4716 88.7765 50.6872 88.992C50.9029 89.2075 51.1952 89.3292 51.5004 89.3305H74.5497C74.8551 89.3296 75.1476 89.2081 75.3634 88.9925C75.5791 88.7769 75.7005 88.4849 75.701 88.1802C75.7001 87.8757 75.5785 87.584 75.3629 87.3685C75.1472 87.153 74.8549 87.0313 74.5497 87.03H51.5004C51.1952 87.0313 50.9029 87.153 50.6872 87.3685C50.4716 87.584 50.35 87.8757 50.3491 88.1802Z" fill="white"/>
    <path d="M74.5498 89.6168H51.5005C51.1186 89.6168 50.7523 89.4654 50.4823 89.196C50.2123 88.9266 50.0605 88.5612 50.0605 88.1802C50.0605 87.7992 50.2123 87.4338 50.4823 87.1644C50.7523 86.895 51.1186 86.7437 51.5005 86.7437H74.5498C74.9317 86.7437 75.298 86.895 75.568 87.1644C75.838 87.4338 75.9898 87.7992 75.9898 88.1802C75.9898 88.5612 75.838 88.9266 75.568 89.196C75.298 89.4654 74.9317 89.6168 74.5498 89.6168ZM51.5005 87.318C51.2713 87.318 51.0514 87.4088 50.8893 87.5705C50.7272 87.7322 50.6362 87.9515 50.6362 88.1802C50.6362 88.4089 50.7272 88.6283 50.8893 88.79C51.0514 88.9517 51.2713 89.0425 51.5005 89.0425H74.5498C74.779 89.0425 74.9989 88.9517 75.161 88.79C75.3231 88.6283 75.4141 88.4089 75.4141 88.1802C75.4141 87.9515 75.3231 87.7322 75.161 87.5705C74.9989 87.4088 74.779 87.318 74.5498 87.318H51.5005Z" fill="#363852"/>
    <path d="M72.5341 87.03L71.8979 85.7572C71.7284 85.4593 71.4867 85.2085 71.195 85.0278C70.9033 84.847 70.5709 84.7421 70.2281 84.7225H55.8218C55.4791 84.7417 55.1468 84.8466 54.8553 85.0274C54.5639 85.2082 54.3226 85.4592 54.1537 85.7572L53.5176 87.0282L72.5341 87.03Z" fill="white"/>
    <path d="M72.5342 87.3179H53.5195C53.4703 87.3182 53.4219 87.3059 53.3789 87.2821C53.3359 87.2583 53.2997 87.2239 53.2738 87.1822C53.248 87.1405 53.2333 87.0928 53.2312 87.0438C53.2291 86.9948 53.2397 86.9461 53.2619 86.9023L53.898 85.6313C54.091 85.2861 54.3692 84.9957 54.7062 84.7878C55.0432 84.5798 55.4279 84.4612 55.8237 84.4431H70.23C70.6257 84.4617 71.0102 84.5805 71.3471 84.7884C71.684 84.9963 71.9623 85.2864 72.1557 85.6313L72.7935 86.9023C72.8157 86.9461 72.8263 86.9948 72.8242 87.0438C72.8221 87.0928 72.8075 87.1405 72.7816 87.1822C72.7557 87.2239 72.7196 87.2583 72.6766 87.2821C72.6335 87.3059 72.5851 87.3182 72.536 87.3179H72.5342ZM53.9845 86.7437H72.0675L71.6405 85.8814C71.4939 85.6333 71.2884 85.4249 71.0422 85.2746C70.7959 85.1242 70.5164 85.0365 70.2283 85.0191H55.822C55.534 85.0363 55.2547 85.124 55.0087 85.2744C54.7627 85.4248 54.5576 85.6332 54.4114 85.8814L53.9845 86.7437Z" fill="#363852"/>
    <path d="M29.8341 76.962C29.191 74.2458 28.4305 70.9985 30.6172 68.322C27.7926 68.6117 25.5679 71.7711 25.5679 75.622C25.5679 78.9228 27.1962 81.7114 29.4365 82.6306C30.7935 81.4458 30.4789 79.6833 29.8341 76.962Z" fill="#F8A611"/>
    <path d="M29.4366 82.9221C29.3987 82.9215 29.3612 82.9139 29.326 82.8996C26.9059 81.9063 25.2793 78.9832 25.2793 75.6255C25.2793 71.6762 27.6112 68.3444 30.5879 68.0374C30.6448 68.0307 30.7025 68.0414 30.7531 68.0682C30.8038 68.095 30.845 68.1366 30.8714 68.1875C30.8982 68.2377 30.9098 68.2947 30.9046 68.3514C30.8993 68.4081 30.8776 68.462 30.842 68.5065C28.7365 71.0813 29.4695 74.1699 30.116 76.8965C30.7884 79.7403 31.0909 81.5528 29.6268 82.8479C29.5745 82.8948 29.5069 82.9211 29.4366 82.9221ZM29.9552 68.7479C27.6077 69.4378 25.8567 72.2902 25.8567 75.6255C25.8567 78.6227 27.2966 81.332 29.3796 82.2943C30.4167 81.2596 30.211 79.7954 29.5524 77.031C28.9561 74.5097 28.2231 71.4158 29.9535 68.7479H29.9552Z" fill="#363852"/>
    <path d="M33.2774 68.9411C30.7761 70.9209 31.376 73.4939 32.0674 76.436C32.5653 78.54 33.1132 80.8509 32.185 82.7893C34.6552 82.0788 36.5065 79.1436 36.5065 75.6255C36.5151 72.6506 35.1876 70.0879 33.2774 68.9411Z" fill="#F8A611"/>
    <path d="M32.1953 83.0756C32.1467 83.0757 32.0988 83.0635 32.0562 83.0401C32.0136 83.0167 31.9777 82.983 31.9518 82.9419C31.9259 82.9009 31.9108 82.854 31.9081 82.8056C31.9053 82.7571 31.9149 82.7088 31.936 82.6651C32.8193 80.8181 32.2817 78.5262 31.7977 76.5033C31.1063 73.5715 30.4494 70.8122 33.1011 68.7169C33.1471 68.6803 33.2033 68.6586 33.262 68.6549C33.3208 68.6512 33.3793 68.6656 33.4295 68.6962C35.4779 69.9276 36.8038 72.6489 36.8038 75.6255C36.8038 79.1832 34.9023 82.3116 32.2748 83.0652C32.2488 83.072 32.2221 83.0755 32.1953 83.0756ZM33.3016 69.2964C31.1218 71.1503 31.6957 73.575 32.3595 76.367C32.8089 78.2641 33.3137 80.4042 32.7052 82.2909C34.7796 81.3355 36.2299 78.6504 36.2299 75.622C36.2264 72.93 35.0855 70.4742 33.3016 69.2964Z" fill="#363852"/>
    <path d="M66.1576 38.9683H48.4722C48.2893 38.9748 48.1071 38.9445 47.9362 38.8792C47.7654 38.8139 47.6095 38.7149 47.4778 38.5881C47.3461 38.4614 47.2414 38.3095 47.1699 38.1414C47.0984 37.9734 47.0615 37.7928 47.0615 37.6102C47.0615 37.4277 47.0984 37.247 47.1699 37.079C47.2414 36.911 47.3461 36.7591 47.4778 36.6323C47.6095 36.5056 47.7654 36.4066 47.9362 36.3413C48.1071 36.276 48.2893 36.2456 48.4722 36.2521H66.1576C66.3405 36.2456 66.5228 36.276 66.6936 36.3413C66.8645 36.4066 67.0204 36.5056 67.152 36.6323C67.2837 36.7591 67.3884 36.911 67.4599 37.079C67.5314 37.247 67.5683 37.4277 67.5683 37.6102C67.5683 37.7928 67.5314 37.9734 67.4599 38.1414C67.3884 38.3095 67.2837 38.4614 67.152 38.5881C67.0204 38.7149 66.8645 38.8139 66.6936 38.8792C66.5228 38.9445 66.3405 38.9748 66.1576 38.9683Z" fill="#FBD388"/>
    <path d="M66.1573 39.2546H48.4719C48.0345 39.2546 47.615 39.0813 47.3058 38.7727C46.9965 38.4642 46.8228 38.0457 46.8228 37.6094C46.8228 37.173 46.9965 36.7546 47.3058 36.446C47.615 36.1375 48.0345 35.9641 48.4719 35.9641H66.1573C66.3739 35.9641 66.5883 36.0067 66.7884 36.0894C66.9885 36.1721 67.1703 36.2932 67.3234 36.446C67.4765 36.5988 67.598 36.7802 67.6809 36.9798C67.7637 37.1794 67.8064 37.3933 67.8064 37.6094C67.8064 37.8254 67.7637 38.0394 67.6809 38.239C67.598 38.4386 67.4765 38.6199 67.3234 38.7727C67.1703 38.9255 66.9885 39.0467 66.7884 39.1294C66.5883 39.212 66.3739 39.2546 66.1573 39.2546ZM48.4719 36.5384C48.3309 36.5384 48.1913 36.5661 48.0611 36.6199C47.9308 36.6738 47.8125 36.7526 47.7128 36.8521C47.6131 36.9515 47.534 37.0696 47.4801 37.1995C47.4262 37.3295 47.3984 37.4687 47.3984 37.6094C47.3984 37.75 47.4262 37.8893 47.4801 38.0192C47.534 38.1491 47.6131 38.2672 47.7128 38.3666C47.8125 38.4661 47.9308 38.545 48.0611 38.5988C48.1913 38.6526 48.3309 38.6803 48.4719 38.6803H66.1573C66.2983 38.6803 66.4379 38.6526 66.5681 38.5988C66.6983 38.545 66.8167 38.4661 66.9164 38.3666C67.016 38.2672 67.0951 38.1491 67.1491 38.0192C67.203 37.8893 67.2308 37.75 67.2308 37.6094C67.2308 37.4687 67.203 37.3295 67.1491 37.1995C67.0951 37.0696 67.016 36.9515 66.9164 36.8521C66.8167 36.7526 66.6983 36.6738 66.5681 36.6199C66.4379 36.5661 66.2983 36.5384 66.1573 36.5384H48.4719Z" fill="#363852"/>
    <path d="M66.1576 36.6746H48.4722C48.2893 36.6811 48.1071 36.6508 47.9362 36.5855C47.7654 36.5202 47.6095 36.4212 47.4778 36.2944C47.3461 36.1677 47.2414 36.0158 47.1699 35.8478C47.0984 35.6798 47.0615 35.4991 47.0615 35.3166C47.0615 35.134 47.0984 34.9534 47.1699 34.7854C47.2414 34.6173 47.3461 34.4654 47.4778 34.3387C47.6095 34.2119 47.7654 34.1129 47.9362 34.0476C48.1071 33.9823 48.2893 33.952 48.4722 33.9585H66.1576C66.3405 33.952 66.5228 33.9823 66.6936 34.0476C66.8645 34.1129 67.0204 34.2119 67.152 34.3387C67.2837 34.4654 67.3884 34.6173 67.4599 34.7854C67.5314 34.9534 67.5683 35.134 67.5683 35.3166C67.5683 35.4991 67.5314 35.6798 67.4599 35.8478C67.3884 36.0158 67.2837 36.1677 67.152 36.2944C67.0204 36.4212 66.8645 36.5202 66.6936 36.5855C66.5228 36.6508 66.3405 36.6811 66.1576 36.6746Z" fill="#E7F7F8"/>
    <path d="M66.1573 36.9627H48.4718C48.2506 36.9698 48.0303 36.9325 47.8239 36.853C47.6174 36.7735 47.4291 36.6534 47.2701 36.4998C47.1111 36.3463 46.9847 36.1624 46.8984 35.9591C46.8121 35.7558 46.7676 35.5373 46.7676 35.3166C46.7676 35.0958 46.8121 34.8773 46.8984 34.674C46.9847 34.4707 47.1111 34.2869 47.2701 34.1333C47.4291 33.9797 47.6174 33.8596 47.8239 33.7801C48.0303 33.7006 48.2506 33.6633 48.4718 33.6705H66.1573C66.3784 33.6633 66.5988 33.7006 66.8052 33.7801C67.0117 33.8596 67.2 33.9797 67.3589 34.1333C67.5179 34.2869 67.6443 34.4707 67.7307 34.674C67.817 34.8773 67.8615 35.0958 67.8615 35.3166C67.8615 35.5373 67.817 35.7558 67.7307 35.9591C67.6443 36.1624 67.5179 36.3463 67.3589 36.4998C67.2 36.6534 67.0117 36.7735 66.8052 36.853C66.5988 36.9325 66.3784 36.9698 66.1573 36.9627ZM48.4718 34.2448C48.3271 34.239 48.1827 34.2624 48.0473 34.3137C47.9119 34.3649 47.7883 34.4429 47.6838 34.543C47.5794 34.6431 47.4963 34.7632 47.4395 34.8962C47.3828 35.0291 47.3535 35.1721 47.3535 35.3166C47.3535 35.4611 47.3828 35.604 47.4395 35.737C47.4963 35.8699 47.5794 35.99 47.6838 36.0901C47.7883 36.1902 47.9119 36.2682 48.0473 36.3195C48.1827 36.3707 48.3271 36.3942 48.4718 36.3884H66.1573C66.4347 36.3773 66.6971 36.2595 66.8895 36.0597C67.0819 35.8599 67.1894 35.5936 67.1894 35.3166C67.1894 35.0395 67.0819 34.7732 66.8895 34.5734C66.6971 34.3736 66.4347 34.2559 66.1573 34.2448H48.4718Z" fill="#363852"/>
    <path d="M67.3571 31.8769C67.3571 30.7318 66.4513 29.0193 65.3416 28.0708C65.3416 28.0708 62.861 25.9479 57.3139 25.9479C51.7668 25.9479 49.2862 28.0708 49.2862 28.0708C48.1782 29.0193 47.2793 30.7318 47.2793 31.8769C47.2793 33.022 48.5049 33.9585 50.0019 33.9585H64.6346C66.1316 33.9585 67.3571 33.0203 67.3571 31.8769Z" fill="#F8A611"/>
    <path d="M64.6343 34.2448H49.9946C48.3334 34.2448 46.9834 33.1824 46.9834 31.8769C46.9834 30.656 47.9324 28.8503 49.0975 27.8535C49.2029 27.7639 51.7267 25.6599 57.3136 25.6599C62.9005 25.6599 65.4242 27.7639 65.528 27.8535C66.6965 28.8503 67.6455 30.656 67.6455 31.8769C67.6455 33.1824 66.2937 34.2448 64.6343 34.2448ZM57.3136 26.2359C51.9549 26.2359 49.4968 28.2692 49.4726 28.2899C48.4354 29.178 47.559 30.8198 47.559 31.8769C47.559 32.8496 48.674 33.6705 49.9946 33.6705H64.6343C65.9532 33.6705 67.0699 32.8496 67.0699 31.8769C67.0699 30.8198 66.1918 29.1763 65.1529 28.2899C65.1287 28.2692 62.6636 26.2359 57.3136 26.2359Z" fill="#363852"/>
    <path d="M67.3571 41.0792C67.3571 42.2398 66.4513 43.9782 65.3416 44.9387C65.3416 44.9387 62.861 47.0927 57.3139 47.0927C51.7668 47.0927 49.2862 44.9387 49.2862 44.9387C48.1782 43.9782 47.2793 42.2398 47.2793 41.0792C47.2793 39.9186 48.5049 38.9683 50.0019 38.9683H64.6346C66.1316 38.9683 67.3571 39.9186 67.3571 41.0792Z" fill="#F8A611"/>
    <path d="M57.3136 47.379C51.725 47.379 49.2012 45.2457 49.0975 45.156C47.9307 44.1454 46.9834 42.3174 46.9834 41.0792C46.9834 39.7564 48.3334 38.6803 49.9946 38.6803H64.6343C66.2937 38.6803 67.6455 39.7564 67.6455 41.0792C67.6455 42.3174 66.6965 44.1471 65.5297 45.156C65.4294 45.2457 62.9039 47.379 57.3136 47.379ZM49.9946 39.2546C48.6515 39.2546 47.559 40.0737 47.559 41.0792C47.559 42.1536 48.4372 43.8212 49.4743 44.7214C49.4985 44.7421 51.9601 46.8047 57.3136 46.8047C62.6671 46.8047 65.1269 44.7352 65.1529 44.7214C66.19 43.8229 67.0699 42.1553 67.0699 41.0792C67.0699 40.0737 65.9774 39.2546 64.6343 39.2546H49.9946Z" fill="#363852"/>
    <path fill-rule="evenodd" clip-rule="evenodd" d="M110.387 69.7371V124.237V124.461H118.019C119.241 124.458 120.411 123.972 121.275 123.11C122.138 122.248 122.625 121.081 122.628 119.862V87.1714C122.628 84.6432 121.357 80.9388 119.802 78.9418L112.723 69.8534C112.07 69.0152 111.243 68.5288 110.387 68.3942V69.7371Z" fill="#FAC158"/>
    <path d="M118.019 124.749H101.77C100.472 124.748 99.2268 124.232 98.3088 123.316C97.3907 122.4 96.8744 121.158 96.873 119.862V87.1714C96.873 84.5845 98.1695 80.8112 99.7616 78.7641L106.838 69.6775C107.646 68.6427 108.74 68.0685 109.895 68.0685C111.049 68.0685 112.142 68.6393 112.951 69.6775L120.038 78.7641C121.63 80.8095 122.925 84.5811 122.925 87.1714V119.862C122.924 121.159 122.406 122.402 121.486 123.319C120.566 124.235 119.319 124.75 118.019 124.749ZM109.895 68.6427C108.915 68.6427 107.993 69.136 107.293 70.0224L100.218 79.1108C98.6898 81.0716 97.4521 84.6845 97.4521 87.1645V119.862C97.4521 121.005 97.9074 122.102 98.7179 122.911C99.5283 123.719 100.628 124.173 101.774 124.173H118.023C119.169 124.173 120.268 123.719 121.078 122.911C121.889 122.102 122.344 121.005 122.344 119.862V87.1714C122.344 84.6897 121.103 81.0768 119.578 79.1177L112.491 70.0293C111.798 69.136 110.875 68.6427 109.895 68.6427Z" fill="#363852"/>
 </svg>
    