<svg width="13" height="13" viewBox="0 0 13 13" fill="none" xmlns="http://www.w3.org/2000/svg">
<path d="M10.5739 2.27743H10.1317V1.8292C10.1352 1.78214 10.1291 1.73485 10.1138 1.69028C10.0985 1.64572 10.0742 1.60484 10.0426 1.57022C10.0109 1.5356 9.97254 1.50798 9.92987 1.48909C9.88719 1.4702 9.84112 1.46045 9.79455 1.46045C9.74798 1.46045 9.70192 1.4702 9.65924 1.48909C9.61656 1.50798 9.5782 1.5356 9.54655 1.57022C9.5149 1.60484 9.49065 1.64572 9.47531 1.69028C9.45998 1.73485 9.4539 1.78214 9.45745 1.8292V2.27743H9.01518C8.92971 2.28403 8.84985 2.3231 8.79159 2.38682C8.73333 2.45054 8.70096 2.5342 8.70096 2.62107C8.70096 2.70795 8.73333 2.79161 8.79159 2.85533C8.84985 2.91905 8.92971 2.95812 9.01518 2.96472H9.45745V3.41295C9.45745 3.50382 9.49307 3.59098 9.55647 3.65523C9.61987 3.71949 9.70587 3.75559 9.79554 3.75559C9.8852 3.75559 9.9712 3.71949 10.0346 3.65523C10.098 3.59098 10.1336 3.50382 10.1336 3.41295V2.96472H10.5759C10.6614 2.95812 10.7412 2.91905 10.7995 2.85533C10.8577 2.79161 10.8901 2.70795 10.8901 2.62107C10.8901 2.5342 10.8577 2.45054 10.7995 2.38682C10.7412 2.3231 10.6614 2.28403 10.5759 2.27743H10.5739Z" fill="#4A4C63"/>
<path d="M6.0431 3.91479C5.59595 3.91493 5.1588 4.04889 4.78648 4.29986C4.41416 4.55083 4.12325 4.90764 3.95026 5.32553C3.77726 5.74341 3.72988 6.20377 3.81406 6.64885C3.89823 7.09392 4.11022 7.5039 4.42342 7.82734L4.43914 7.84527C4.70342 8.11226 5.02856 8.30912 5.38579 8.41842C5.74302 8.52772 6.12132 8.5461 6.48723 8.47193C6.85313 8.39775 7.19536 8.23331 7.48362 7.99316C7.77189 7.75301 7.9973 7.44456 8.13991 7.09508C8.28253 6.74561 8.33795 6.36589 8.30127 5.98954C8.26459 5.61319 8.13694 5.2518 7.92963 4.93736C7.72231 4.62291 7.44171 4.36511 7.11266 4.18675C6.78361 4.00839 6.41626 3.91499 6.0431 3.91479ZM7.51733 6.2177C7.516 6.56381 7.3963 6.89875 7.17863 7.16545C6.96095 7.43214 6.65877 7.6141 6.32357 7.68032C5.98836 7.74654 5.64088 7.69292 5.34031 7.52859C5.03974 7.36427 4.80468 7.09941 4.67519 6.77915C4.5457 6.45888 4.52978 6.10301 4.63014 5.77218C4.73051 5.44135 4.94095 5.15602 5.22562 4.96481C5.51028 4.7736 5.85156 4.68833 6.1913 4.72354C6.53104 4.75874 6.84823 4.91224 7.08882 5.15788C7.22578 5.2971 7.33416 5.46243 7.40771 5.64434C7.48126 5.82624 7.51852 6.02111 7.51733 6.2177Z" fill="#4A4C63"/>
<path d="M11.6195 4.47467C12.1041 3.98277 12.3763 3.31609 12.3763 2.621C12.3763 1.92591 12.1041 1.25922 11.6195 0.76732C11.3603 0.504299 11.0488 0.300287 10.7057 0.168882C10.3626 0.0374772 9.99582 -0.0183026 9.62978 0.00526054C9.26373 0.0288237 8.90685 0.131188 8.58291 0.305532C8.25897 0.479876 7.97542 0.722194 7.75115 1.01634C6.43624 0.621535 5.02787 0.692276 3.75791 1.21691C2.48796 1.74155 1.43212 2.68881 0.764239 3.90274C0.0963544 5.11667 -0.143768 6.5249 0.0834065 7.89559C0.31058 9.26628 0.991508 10.5177 2.01408 11.4439C3.03666 12.37 4.33993 12.9157 5.70932 12.991C7.07871 13.0663 8.43259 12.6668 9.54807 11.8583C10.6635 11.0498 11.4741 9.88037 11.8464 8.54265C12.2186 7.20494 12.1303 5.77864 11.5959 4.49858L11.6195 4.47467ZM3.03363 9.79565C3.29547 9.51296 3.61286 9.28901 3.96534 9.13825C4.23316 9.33666 4.52774 9.49499 4.84005 9.60839C5.61707 9.89124 6.467 9.89124 7.24402 9.60839C7.55694 9.49502 7.85218 9.33669 8.12069 9.13825C8.47137 9.28615 8.78788 9.50632 9.05013 9.78479C9.31238 10.0633 9.51463 10.3939 9.64406 10.7559C8.67291 11.6847 7.38814 12.202 6.05284 12.202C4.71755 12.202 3.43278 11.6847 2.46163 10.7559C2.5849 10.3992 2.77965 10.0723 3.03363 9.79565ZM8.17573 8.30155C8.13577 8.28824 8.09396 8.28152 8.0519 8.28163C7.95937 8.28098 7.86958 8.31343 7.79833 8.37327C7.5546 8.58078 7.27639 8.74267 6.97669 8.85138C6.37301 9.07046 5.71302 9.07046 5.10934 8.85138C4.81502 8.74419 4.54109 8.5865 4.2995 8.38522C4.24745 8.33674 4.18346 8.30338 4.11427 8.28866C4.04509 8.27393 3.97327 8.27839 3.90637 8.30155C3.35218 8.48911 2.85245 8.81284 2.4518 9.24383C2.21414 9.49793 2.01537 9.78667 1.86211 10.1004C1.19884 9.22128 0.823017 8.15414 0.787118 7.04803C0.751218 5.94192 1.05703 4.85205 1.66186 3.93061C2.26669 3.00916 3.14034 2.30214 4.16082 1.90824C5.18131 1.51435 6.29769 1.45326 7.3541 1.7335C7.17709 2.22533 7.14955 2.75962 7.27501 3.26746C7.40048 3.7753 7.67321 4.23339 8.05801 4.58265C8.44282 4.9319 8.92205 5.1563 9.43389 5.22689C9.94572 5.29748 10.4667 5.21103 10.9296 4.97868C11.2507 5.82357 11.3539 6.73751 11.2294 7.63408C11.1049 8.53065 10.7568 9.38022 10.218 10.1024C10.0109 9.68201 9.72384 9.30719 9.37336 8.9995C9.02288 8.69182 8.61588 8.45734 8.17573 8.30952V8.30155ZM9.79345 4.43882C9.31869 4.43776 8.86373 4.24588 8.52839 3.90527C8.19305 3.56467 8.00472 3.10315 8.00472 2.62199C8.00291 2.38276 8.04783 2.14552 8.13691 1.92397C8.22599 1.70241 8.35746 1.50092 8.52374 1.3311C8.69002 1.16128 8.88782 1.0265 9.10574 0.934526C9.32366 0.842552 9.55739 0.795203 9.79345 0.79521C10.1491 0.795442 10.4967 0.90264 10.7921 1.10323C11.0876 1.30381 11.3177 1.58876 11.4533 1.92199C11.5888 2.25521 11.6237 2.62171 11.5536 2.97506C11.4835 3.32842 11.3115 3.65273 11.0593 3.90692C10.8938 4.07644 10.6966 4.2108 10.4793 4.30213C10.2619 4.39347 10.0288 4.43993 9.79345 4.43882Z" fill="#4A4C63"/>
</svg>
