<svg width="24" height="18" viewBox="0 0 24 18" fill="none" xmlns="http://www.w3.org/2000/svg">
<path d="M1.5981 11.2326C1.18504 11.3159 0.809358 11.5254 0.524689 11.831C0.24002 12.1367 0.0609248 12.5228 0.0129775 12.9344C-0.0349699 13.346 0.0506813 13.762 0.257702 14.1229C0.464722 14.4838 0.782525 14.7712 1.16573 14.9441L1.25663 15.6302C1.34539 16.2835 1.67161 16.8832 2.17513 17.3187C2.67864 17.7543 3.32548 17.9962 3.99633 18H19.5244C20.1871 17.9946 20.8262 17.7575 21.3271 17.3312C21.828 16.9049 22.158 16.3173 22.258 15.6737L22.364 14.9667C22.7488 14.7944 23.0684 14.5071 23.2771 14.1458C23.4858 13.7844 23.5729 13.3676 23.5261 12.9547C23.4793 12.5418 23.301 12.154 23.0165 11.8466C22.732 11.5392 22.356 11.328 21.9421 11.243C21.6073 9.05023 20.4753 7.05085 18.7555 5.61499C17.3083 4.39449 15.5504 3.58381 13.6701 3.2698C13.8678 2.94052 13.9734 2.56572 13.9762 2.18342C13.9789 1.80111 13.8787 1.42489 13.6857 1.0929C13.4927 0.760915 13.2138 0.484963 12.8773 0.293028C12.5407 0.101092 12.1585 0 11.7693 0C11.3801 0 10.9979 0.101092 10.6614 0.293028C10.3248 0.484963 10.0459 0.760915 9.85289 1.0929C9.65989 1.42489 9.55969 1.80111 9.56244 2.18342C9.56519 2.56572 9.67078 2.94052 9.86852 3.2698C7.98842 3.58363 6.23064 4.39404 4.78348 5.61422C3.06627 7.04794 1.93488 9.04348 1.5981 11.2326ZM22.1966 13.1813C22.1882 13.3567 22.1108 13.522 21.9806 13.6423C21.8505 13.7625 21.6779 13.8284 21.4992 13.8259H8.19136C8.01344 13.8259 7.8428 13.8953 7.71699 14.0189C7.59118 14.1425 7.5205 14.3102 7.5205 14.485C7.5205 14.6598 7.59118 14.8274 7.71699 14.951C7.8428 15.0746 8.01344 15.144 8.19136 15.144H20.98L20.9309 15.4803C20.8796 15.8119 20.71 16.1148 20.4524 16.335C20.1947 16.5551 19.8658 16.678 19.5244 16.6819H3.99633C3.6507 16.6789 3.31779 16.5534 3.05881 16.3285C2.79983 16.1037 2.63219 15.7945 2.58673 15.4579L2.54592 15.144H4.3898C4.56772 15.144 4.73836 15.0746 4.86417 14.951C4.98998 14.8274 5.06066 14.6598 5.06066 14.485C5.06066 14.3102 4.98998 14.1425 4.86417 14.0189C4.73836 13.8953 4.56772 13.8259 4.3898 13.8259H2.01639C1.9268 13.8262 1.83804 13.8089 1.75534 13.7751C1.67265 13.7412 1.59768 13.6914 1.53485 13.6287C1.47202 13.5659 1.4226 13.4915 1.38949 13.4097C1.35638 13.3279 1.34025 13.2404 1.34206 13.1524C1.35037 12.977 1.4278 12.8117 1.55797 12.6914C1.68813 12.5711 1.86083 12.5052 2.03953 12.5078H21.5222C21.6118 12.5074 21.7006 12.5247 21.7833 12.5586C21.866 12.5925 21.941 12.6422 22.0038 12.705C22.0666 12.7678 22.116 12.8422 22.1492 12.924C22.1823 13.0058 22.1984 13.0933 22.1966 13.1813ZM11.7693 1.32323C11.9404 1.32323 12.1077 1.37308 12.25 1.46648C12.3923 1.55988 12.5032 1.69263 12.5686 1.84794C12.6341 2.00325 12.6513 2.17416 12.6179 2.33904C12.5845 2.50392 12.5021 2.65537 12.3811 2.77424C12.2601 2.89311 12.1059 2.97407 11.9381 3.00686C11.7703 3.03966 11.5963 3.02283 11.4382 2.95849C11.2801 2.89416 11.145 2.78522 11.0499 2.64544C10.9549 2.50566 10.9041 2.34132 10.9041 2.17321C10.9043 1.94786 10.9956 1.7318 11.1578 1.57244C11.32 1.41309 11.5399 1.32347 11.7693 1.32323ZM5.66131 6.61117C7.37275 5.20018 9.53556 4.42681 11.7698 4.42691C14.004 4.42701 16.1668 5.20058 17.8781 6.61172C19.2871 7.78698 20.24 9.40399 20.5759 11.1896H2.96264C3.29866 9.40369 4.2519 7.78646 5.66131 6.61117Z" fill="#F8A611"/>
</svg>
