<svg width="17" height="17" viewBox="0 0 17 17" fill="none" xmlns="http://www.w3.org/2000/svg">
<path fill-rule="evenodd" clip-rule="evenodd" d="M14.1509 7.65995C14.1509 10.9503 11.4835 13.6177 8.19315 13.6177C4.90278 13.6177 2.23541 10.9503 2.23541 7.65995C2.23541 4.36958 4.90278 1.70221 8.19315 1.70221C11.4835 1.70221 14.1509 4.36958 14.1509 7.65995ZM14.178 12.4412C15.2263 11.1308 15.8531 9.46856 15.8531 7.65995C15.8531 3.42947 12.4236 0 8.19315 0C3.96268 0 0.533203 3.42947 0.533203 7.65995C0.533203 11.8904 3.96268 15.3199 8.19315 15.3199C10.0018 15.3199 11.664 14.6931 12.9744 13.6448L15.2513 15.9217C15.5837 16.2541 16.1225 16.2541 16.4549 15.9217C16.7873 15.5893 16.7873 15.0504 16.4549 14.7181L14.178 12.4412Z" fill="#F8A611"/>
</svg>
