
<svg width="279" height="168" viewBox="0 0 279 168" fill="none" xmlns="http://www.w3.org/2000/svg">
    <path d="M80.2371 52.4092C83.767 62.4104 90.8517 68.595 91.2966 79.1838C91.601 86.4445 87.3613 93.1797 86.8225 100.425C86.0888 110.359 92.9679 120.006 102.18 123.784C111.393 127.561 122.311 125.862 130.791 120.64C133.573 118.929 136.238 116.817 139.435 116.149C144.015 115.201 148.568 117.397 153.045 118.757C158.591 120.397 164.431 120.795 170.147 119.923C175.864 119.051 181.317 116.93 186.118 113.712C186.118 113.712 208.894 101.73 208.49 71.2752C208.371 62.4216 206.021 53.3844 200.604 46.4006C195.188 39.4167 182.9 34.304 174.07 35.0921C164.695 35.9356 156.012 42.5704 146.725 41.0477C141.344 40.165 136.824 36.6776 132.246 33.7103C125.812 29.5724 119.036 25.8824 111.637 23.9325C102.917 21.6611 92.889 22.4271 85.2602 30.1963C82.5741 32.9175 80.6842 36.3212 79.7949 40.0394C79.0197 43.3921 78.6322 47.8606 80.2371 52.4092Z" fill="#E7F7F8"/>
    <path d="M153.5 91.9998L149 94.9998L148.5 95.9998L154 103.5L159 99.9998L153.5 91.9998Z" fill="white"/>
    <path d="M161 98.4998L152.5 104.5C156.167 109.833 163.9 121 165.5 123C167.5 125.5 170 126 173 124.5C175.4 123.3 175.667 119.666 175.5 118L161 98.4998Z" fill="#F8A611"/>
    <circle cx="137.5" cy="75.4998" r="22.5" fill="#FDE4B8"/>
    <circle cx="115" cy="87.9998" r="13" fill="#0CAEBB"/>
    <path d="M152.121 106.5L164.954 123.8C167.004 126.696 171.36 127.332 174.16 125.158C177.043 123.104 177.685 118.735 175.517 115.934L162.682 98.6337C161.889 97.5216 160.238 97.2213 159.109 97.9827L154.809 92.1877C162.725 83.8448 163.566 70.8752 156.636 61.5325C144.081 44.1977 115.854 51.9361 113.845 73.2176C106.73 73.8977 100.861 80.4232 101.003 87.621C100.945 101.025 118.012 107.25 126.553 96.952C133.313 100.463 141.434 100.515 148.229 97.0857L152.529 102.883C151.475 103.786 151.282 105.368 152.121 106.502V106.5ZM160.544 99.8815C160.642 99.8815 160.731 99.9125 160.822 100.021L173.655 117.321C175.055 119.212 174.663 121.891 172.776 123.294C170.962 124.701 168.145 124.29 166.816 122.415L153.983 105.115C153.869 104.962 153.902 104.745 154.055 104.63L160.341 99.9493C160.412 99.895 160.486 99.8815 160.544 99.8815ZM154.383 101.484L150.261 95.927C151.266 95.2915 152.22 94.5805 153.115 93.7997L157.237 99.3564L154.381 101.484H154.383ZM120.859 98.5388C109.327 104.206 97.988 90.1785 105.945 80.0686C112.888 71.0728 127.742 76.2285 127.626 87.619C127.675 92.1857 124.938 96.5509 120.859 98.5368V98.5388ZM127.912 95.0358C133.574 86.0322 126.789 73.3726 116.189 73.1362C118.123 54.2185 143.721 47.3888 154.774 62.9178C168.079 81.1633 148.101 104.942 127.912 95.0358Z" fill="#363852"/>
    <path d="M150.489 63.3596C151.475 63.3925 152.047 62.077 151.317 61.3833C147.647 57.6401 142.699 55.6328 137.743 55.8828C137.103 55.9157 136.61 56.4602 136.642 57.1015C136.675 57.7428 137.215 58.2407 137.859 58.2039C142.155 57.9908 146.455 59.7403 149.661 63.0108C149.888 63.2433 150.189 63.3596 150.489 63.3596Z" fill="#FFFBF3"/>
    <path d="M121.524 81.5605C121.071 81.1071 120.337 81.1071 119.882 81.5605L115.475 85.9761L111.069 81.5605C110.616 81.1071 109.882 81.1071 109.427 81.5605C108.973 82.0139 108.975 82.7501 109.427 83.2054L113.834 87.621L109.427 92.0366C108.975 92.4899 108.975 93.2262 109.427 93.6815C109.88 94.1349 110.614 94.1349 111.069 93.6815L115.475 89.2659L119.882 93.6815C120.335 94.1349 121.069 94.1349 121.524 93.6815C121.976 93.2281 121.976 92.4919 121.524 92.0366L117.117 87.621L121.524 83.2054C121.976 82.7521 121.976 82.0158 121.524 81.5605Z" fill="#E7F7F8"/>
    </svg>
    